<svg xmlns="http://www.w3.org/2000/svg" width="31.986" height="31.986">
  <defs/>
  <path fill="#0176f4" d="M31.292 11.655L30 10.365a2.368 2.368 0 00-2.919-.341L21.961 4.9a2.368 2.368 0 00-.341-2.919L20.331.694a2.366 2.366 0 00-3.348 0L9.89 7.786a2.37 2.37 0 000 3.348l1.289 1.29a2.372 2.372 0 002.919.34l1.855 1.855-3.673 3.674-.505-.505a2.717 2.717 0 00-3.837 0L.794 24.931a2.716 2.716 0 000 3.837l2.424 2.424a2.716 2.716 0 003.837 0l7.145-7.145a2.717 2.717 0 000-3.837l-.505-.505 3.674-3.673 1.855 1.855a2.373 2.373 0 00.34 2.919l1.29 1.289a2.37 2.37 0 003.348 0L31.292 15a2.366 2.366 0 000-3.345zM12.785 22.634l-7.143 7.143a.715.715 0 01-1.01 0l-2.424-2.422a.715.715 0 010-1.01L9.352 19.2a.715.715 0 011.01 0l2.423 2.423a.715.715 0 010 1.011zm17.094-9.045l-7.093 7.093a.369.369 0 01-.52 0l-1.29-1.29a.369.369 0 010-.52L22 17.842l-7.856-7.861-1.03 1.029a.368.368 0 01-.52 0L11.3 9.72a.369.369 0 010-.52l7.1-7.093a.368.368 0 01.521 0L20.207 3.4a.368.368 0 010 .521l-1.029 1.025 7.861 7.862 1.03-1.03a.368.368 0 01.52 0l1.289 1.289a.368.368 0 010 .52z"/>
</svg>