<svg xmlns="http://www.w3.org/2000/svg" width="38.294" height="33.507">
  <defs/>
  <path fill="#0176f4" d="M37.1 31.113h-1.2v-2.991a1.8 1.8 0 00-1.8-1.8h-2.987V13.163H28.72v13.164h-4.787V13.163H21.54v13.164h-4.787V13.163H14.36v13.164H9.573V13.163H7.18v13.164H4.188a1.8 1.8 0 00-1.8 1.8v2.992H1.2A1.2 1.2 0 000 32.31v.6a.6.6 0 00.6.6h37.1a.6.6 0 00.6-.6v-.6a1.2 1.2 0 00-1.2-1.197zM4.787 28.72h28.72v2.393H4.787zM37.715 7.778L20.282.184a3.589 3.589 0 00-2.27 0L.578 7.778A.9.9 0 000 8.617v.657a.9.9 0 00.9.9h1.5v.9a.9.9 0 00.9.9H35a.9.9 0 00.9-.9v-.9h1.5a.9.9 0 00.9-.9v-.657a.9.9 0 00-.585-.839zm-4.208 1.8H4.787V8.555l14.057-6.123a1.2 1.2 0 01.606 0l14.057 6.123z"/>
</svg>