<svg xmlns="http://www.w3.org/2000/svg" width="42.258" height="31.694">
  <defs/>
  <path fill="#0176f4" d="M17.586 16.22l.747-.747a.529.529 0 000-.747l-3.105-3.105 3.105-3.105a.529.529 0 000-.747l-.747-.747a.529.529 0 00-.747 0l-4.226 4.226a.53.53 0 000 .747l4.226 4.226a.528.528 0 00.747-.001zm6.339-.747l.747.747a.529.529 0 00.747 0l4.226-4.226a.528.528 0 000-.747l-4.226-4.226a.529.529 0 00-.747 0l-.747.747a.529.529 0 000 .747l3.106 3.106-3.105 3.105a.528.528 0 000 .747zM41.2 22.186h-3.168V4.226A4.231 4.231 0 0033.807 0H8.452a4.231 4.231 0 00-4.226 4.226v17.96h-3.17A1.056 1.056 0 000 23.242v3.169a5.288 5.288 0 005.282 5.282h31.694a5.288 5.288 0 005.282-5.282v-3.169a1.056 1.056 0 00-1.058-1.056zM6.339 4.226a2.113 2.113 0 012.113-2.113h25.355a2.113 2.113 0 012.113 2.113v17.96H25.825a.554.554 0 00-.523.468 2.114 2.114 0 01-2.06 1.646h-4.226a2.114 2.114 0 01-2.061-1.645.554.554 0 00-.523-.468H6.339zm33.806 22.185a3.172 3.172 0 01-3.169 3.169H5.282a3.172 3.172 0 01-3.169-3.169V24.3h12.859a3.172 3.172 0 002.988 2.113h6.34a3.172 3.172 0 002.986-2.113h12.859z"/>
</svg>