<svg xmlns="http://www.w3.org/2000/svg" id="_Group_" width="52.473" height="32.436" data-name="&lt;Group&gt;">
  <defs/>
  <defs>
    <style>
      .cls-3{fill:#f79e1b}
    </style>
  </defs>
  <path id="Rectangle_839" fill="#ff5f00" d="M0 0h14.189v25.499H0z" data-name="Rectangle 839" transform="translate(19.141 3.468)"/>
  <path id="_Path_" fill="#eb001b" d="M35.2 31.373a16.189 16.189 0 016.194-12.752 16.216 16.216 0 100 25.5A16.189 16.189 0 0135.2 31.373z" data-name="&lt;Path&gt;" transform="translate(-15.155 -15.153)"/>
  <path id="Path_3174" d="M99.638 31.371A16.216 16.216 0 0173.4 44.118a16.216 16.216 0 000-25.5 16.216 16.216 0 0126.238 12.748z" class="cls-3" data-name="Path 3174" transform="translate(-47.164 -15.151)"/>
  <path id="Path_3175" d="M127.814 72.691v-.523h.212v-.108h-.536v.108h.23v.523zm1.04 0v-.631h-.162l-.189.45-.189-.45h-.144v.631h.117v-.473l.176.41h.122l.176-.41v.482z" class="cls-3" data-name="Path 3175" transform="translate(-76.89 -46.426)"/>
</svg>