<svg xmlns="http://www.w3.org/2000/svg" width="26.577" height="35.436">
  <defs/>
  <path fill="#0176f4" d="M26.577 9.966a5.537 5.537 0 10-6.54 5.447 4.654 4.654 0 01-.879 2.768c-1.211 1.509-3.675 1.744-6.277 1.987a16.046 16.046 0 00-5.565 1.169 5.407 5.407 0 00-.671.394V10.963a5.537 5.537 0 10-2.215 0v13.51a5.535 5.535 0 102.57.083 2.84 2.84 0 011.312-1.246 14.394 14.394 0 014.769-.948c2.948-.277 6-.561 7.8-2.8a6.852 6.852 0 001.371-4.2 5.521 5.521 0 004.325-5.396zM2.215 5.537a3.322 3.322 0 113.322 3.322 3.323 3.323 0 01-3.322-3.322zM8.859 29.9a3.322 3.322 0 11-3.336-3.322h.041A3.326 3.326 0 018.859 29.9zm13-16.715l-.816.1a3.332 3.332 0 11.816-.1z"/>
</svg>