<svg xmlns="http://www.w3.org/2000/svg" width="41.999" height="41.999">
  <defs/>
  <path fill="#0176f4" d="M25.83 7.683l2.029 4.54-7.818 7.818a1.354 1.354 0 101.915 1.915l7.818-7.818 4.54 2.029a1.74 1.74 0 001.782-.42l5.391-5.391a1.741 1.741 0 00-.681-2.882L36.093 5.9l-1.57-4.709A1.738 1.738 0 0031.642.51L26.251 5.9a1.743 1.743 0 00-.421 1.782zm6.62-4.148l1.075 3.225.428 1.285 1.285.428 3.225 1.075-3.8 3.8L30.5 11.5l-1.854-4.16zm8.569 11.122L38.8 16.874A18.366 18.366 0 1125.125 3.2L27.341.98a21 21 0 1013.678 13.677zM23.26 8.539a4.492 4.492 0 01-.227-1.223 13.874 13.874 0 00-2.034-.2A13.887 13.887 0 1034.886 21a13.8 13.8 0 00-.207-2.063 4.441 4.441 0 01-1.22-.2c-.18-.06.086.052-1.752-.768A11.028 11.028 0 0132.176 21 11.177 11.177 0 1121 9.822a11.028 11.028 0 013.029.47 18.85 18.85 0 01-.768-1.753zM21 14.225a7.014 7.014 0 106.68 5.842l-3.806 3.806a4.063 4.063 0 11-5.746-5.746l3.806-3.806a6.764 6.764 0 00-.934-.096z"/>
</svg>