<svg xmlns="http://www.w3.org/2000/svg" width="42" height="42">
  <defs/>
  <path fill="#0176f4" d="M41.432 1.587A1.437 1.437 0 0040.419.574 30.129 30.129 0 0033.564 0C25.052 0 19.93 4.519 16.1 10.5H7.778a4.314 4.314 0 00-3.517 2.173L.208 20.778a2.307 2.307 0 00-.208.878 1.969 1.969 0 001.969 1.969h7.6L8.7 25.382a2.721 2.721 0 00.505 3l4.409 4.407a2.728 2.728 0 003 .5l1.754-.868v7.6A1.981 1.981 0 0020.34 42a2.3 2.3 0 00.872-.208l8.1-4.052a4.3 4.3 0 002.174-3.516V25.9C37.456 22.061 42 16.919 42 8.449a29.669 29.669 0 00-.568-6.862zM3.03 21l3.576-7.153a1.447 1.447 0 011.172-.722h6.989c-1.143 2.3-2.6 5.25-3.9 7.875zm25.832 13.222a1.441 1.441 0 01-.728 1.17L21 38.965V31.13c2.625-1.3 5.563-2.756 7.866-3.9zm1.2-10.523a4470.007 4470.007 0 01-14.6 7.238l-4.415-4.393c1.713-3.465 5.622-11.369 7.237-14.617 4.12-6.432 8.835-9.3 15.274-9.3a29.834 29.834 0 015.466.352 29.18 29.18 0 01.344 5.47c0 6.4-2.871 11.113-9.311 15.251zm.125-16.478a4.593 4.593 0 104.593 4.593 4.593 4.593 0 00-4.593-4.593zm0 6.562a1.969 1.969 0 111.968-1.969 1.969 1.969 0 01-1.968 1.969z"/>
</svg>