<svg xmlns="http://www.w3.org/2000/svg" width="46.749" height="41.555">
  <defs/>
  <path fill="#0176f4" d="M44.8 5.194H10.493l-.676-3.605A1.948 1.948 0 007.9 0H.974A.974.974 0 000 .974v.649a.974.974 0 00.974.977h6.389l5.675 30.269a5.195 5.195 0 108.341.9h11.783a5.195 5.195 0 108.119-1.126 1.949 1.949 0 00-1.89-1.472H15.362l-.974-5.194h26.9a1.948 1.948 0 001.907-1.551L46.708 7.54A1.948 1.948 0 0044.8 5.194zM19.479 36.361a2.6 2.6 0 11-2.6-2.6 2.6 2.6 0 012.6 2.6zm18.18 2.6a2.6 2.6 0 112.6-2.6 2.6 2.6 0 01-2.6 2.597zm3.1-15.583H13.9L10.98 7.792H44z"/>
</svg>