<svg xmlns="http://www.w3.org/2000/svg" width="36.266" height="41.447">
  <defs/>
  <path fill="#0176f4" d="M6.476 36.266H29.79a1.3 1.3 0 001.3-1.3V19.428a1.3 1.3 0 00-1.3-1.3H6.476a1.3 1.3 0 00-1.3 1.3v15.543a1.3 1.3 0 001.3 1.295zm16.838-7.771v-7.772h5.181v12.952h-5.181zm-7.771-7.771h5.181V25.9h-5.182zm0 7.771h5.181v5.181h-5.182zm-7.772-7.772h5.181V25.9H7.771zm0 7.771h5.181v5.181H7.771zM32.38 0H3.886A3.984 3.984 0 000 3.886v33.675a3.984 3.984 0 003.886 3.886H32.38a3.984 3.984 0 003.886-3.886V3.886A3.984 3.984 0 0032.38 0zm1.3 37.561a1.4 1.4 0 01-1.3 1.3H3.886a1.4 1.4 0 01-1.3-1.3V15.542h31.089zm0-24.609H2.59V3.886a1.4 1.4 0 011.3-1.3h28.49a1.4 1.4 0 011.3 1.3z"/>
</svg>