<svg xmlns="http://www.w3.org/2000/svg" width="46.995" height="41.774">
  <defs/>
  <path fill="#0176f4" d="M44.384 15.084V2.611A2.637 2.637 0 0041.774 0a2.6 2.6 0 00-1.63.573l-6.938 5.55a19.8 19.8 0 01-12.319 4.32H5.222A5.221 5.221 0 000 15.665V23.5a5.221 5.221 0 005.222 5.222l-.039 2.608a20.668 20.668 0 002.085 9.051 2.56 2.56 0 002.317 1.392h8.671a2.594 2.594 0 002.113-4.125 10.39 10.39 0 01-2.134-6.318 9.873 9.873 0 01.36-2.611h2.291a19.8 19.8 0 0112.318 4.32l6.938 5.551a2.61 2.61 0 004.241-2.038V24.079a5.179 5.179 0 000-8.994zM18.256 39.163H9.617a17.606 17.606 0 01-1.824-7.791l.039-2.611v-.039h8.1a12.43 12.43 0 00-.311 2.611 12.783 12.783 0 002.63 7.833zM5.222 26.109A2.614 2.614 0 012.611 23.5v-7.835a2.614 2.614 0 012.611-2.611h15.665v13.055zm36.556 10.356a.406.406 0 01-.02.073L34.836 31A22.423 22.423 0 0023.5 26.282V12.88a22.423 22.423 0 0011.337-4.719l6.924-5.54a.012.012 0 00.007 0l.006-.014V36.46z"/>
</svg>