<svg xmlns="http://www.w3.org/2000/svg" width="48" height="42">
  <defs/>
  <path fill="#0176f4" d="M46.5 39H45v-3.75A2.25 2.25 0 0042.75 33H39V16.5h-3V33h-6V16.5h-3V33h-6V16.5h-3V33h-6V16.5H9V33H5.25A2.25 2.25 0 003 35.25V39H1.5A1.5 1.5 0 000 40.5v.75a.75.75 0 00.75.75h46.5a.75.75 0 00.75-.75v-.75a1.5 1.5 0 00-1.5-1.5zM6 36h36v3H6zM47.275 9.75L25.423.231a4.5 4.5 0 00-2.846 0L.725 9.75A1.124 1.124 0 000 10.8v.824a1.125 1.125 0 001.125 1.126H3v1.125A1.125 1.125 0 004.125 15h39.75A1.125 1.125 0 0045 13.875V12.75h1.875A1.125 1.125 0 0048 11.625V10.8a1.124 1.124 0 00-.725-1.05zM42 12H6v-1.276l17.62-7.675a1.505 1.505 0 01.76 0L42 10.724z"/>
</svg>