<svg xmlns="http://www.w3.org/2000/svg" width="313.719" height="192.446">
  <defs>
    <linearGradient id="linear-gradient" x1=".303" x2="1.031" y1=".5" y2=".417" gradientUnits="objectBoundingBox">
      <stop offset="0" stop-color="#dadadb"/>
      <stop offset="1" stop-color="#f7f7fc"/>
    </linearGradient>
    <linearGradient id="linear-gradient-24" x2="1" y1=".5" y2=".5" gradientUnits="objectBoundingBox">
      <stop offset="0" stop-color="#e5edff"/>
      <stop offset=".356" stop-color="#e2eafd"/>
      <stop offset=".605" stop-color="#d9e1fa"/>
      <stop offset=".82" stop-color="#c9d2f4"/>
      <stop offset="1" stop-color="#b6bfed"/>
    </linearGradient>
    <style>
      .cls-17,.cls-3{stroke:transparent;stroke-miterlimit:10}.cls-3{fill:url(#linear-gradient)}.cls-5{fill:#004998}.cls-6{fill:#0e255f}.cls-7{fill:#0176f4}.cls-10{fill:#fff}.cls-11{fill:#005ec3}.cls-17{fill:#ff5f1f}.cls-18{fill:#e6a625}.cls-19{fill:#ffc248}.cls-20{fill:#d9950d}.cls-21{fill:#fc6}
    </style>
  </defs>
  <g id="Group_4413" data-name="Group 4413">
    <path id="Path_3621" fill="#f7f7fc" d="M1833.6 663.438c-11.995 6.923-11.995 18.254 0 25.178l126.06 72.784c11.992 6.923 31.618 6.923 43.61 0l126.057-72.78c12-6.925 12-18.256 0-25.179l-126.057-72.78c-11.993-6.925-31.619-6.925-43.612 0z" data-name="Path 3621" transform="translate(-1824.605 -585.464)"/>
    <path id="Path_3622" fill="#0f5cb1" d="M2138.323 686.59c0 4.563-3 9.127-9 12.59l-126.057 72.78c-11.991 6.923-31.617 6.923-43.61 0L1833.6 699.179c-5.98-3.452-8.975-8-8.991-12.55v12.478c.016 4.551 3.012 9.1 8.991 12.551l126.059 72.78c11.992 6.925 31.618 6.925 43.61 0l126.057-72.78c6-3.46 9-8.025 9-12.59V686.59z" data-name="Path 3622" transform="translate(-1824.605 -597.185)"/>
    <path id="Path_4279" d="M945.94 719.474l.144-2.85-6.528 2.384a16.442 16.442 0 002.044 2.492c.2-.089 4.34-2.026 4.34-2.026z" class="cls-3" data-name="Path 4279" transform="translate(-740.732 -608.755)"/>
    <path id="Path_4280" d="M1045.818 712.713l50.491-29.255c3.025-1.752 2.64-4.8-.858-6.818l-91.57-52.681c-3.5-2.013-8.787-2.224-11.812-.472l-50.491 29.254c-3.024 1.752-2.641 4.8.859 6.817l91.57 52.682c3.498 2.014 8.787 2.225 11.811.473z" class="cls-3" data-name="Path 4280" transform="translate(-892.987 -570.431)"/>
    <path id="Path_4281" d="M1145.194 684.68l-36.394-60.72c-3.5-2.013-8.787-2.224-11.811-.472l-50.489 29.254c-3.024 1.752-2.64 4.8.858 6.817l91.571 52.682a13.552 13.552 0 006.083 1.647z" class="cls-3" data-name="Path 4281" transform="translate(-997.907 -570.431)"/>
    <path id="Path_4282" d="M1177.343 685.242l-9.3-11.185-51.6-1.858v3.458l56.44 17.694z" class="cls-3" data-name="Path 4282" transform="translate(-1069.9 -590.079)"/>
    <path id="Path_4283" d="M1045.834 702.277l50.491-29.254c3.024-1.753 2.64-4.8-.858-6.817l-91.567-52.682c-3.5-2.013-8.787-2.224-11.812-.472l-50.491 29.255c-3.024 1.752-2.64 4.8.858 6.817l91.571 52.682c3.495 2.012 8.784 2.224 11.808.471z" class="cls-3" data-name="Path 4283" transform="translate(-893.011 -562.267)"/>
    <path id="Path_4284" d="M951.95 623.784l8.124-4.707c.486-.282.425-.773-.138-1.1l-10.028-5.848a2.112 2.112 0 00-1.9-.076l-8.123 4.707c-.487.282-.425.773.138 1.1l10.028 5.848a2.111 2.111 0 001.899.076z" class="cls-3" data-name="Path 4284" transform="translate(-842.204 -553.508)"/>
    <path id="Path_4285" d="M412.288 814.467a14.326 14.326 0 01-12.962 0c-3.58-2.067-3.58-5.417 0-7.484a14.323 14.323 0 0112.962 0c3.58 2.067 3.58 5.417 0 7.484z" class="cls-3" data-name="Path 4285" transform="translate(-219.886 -704.402)"/>
    <path id="Path_4286" d="M412.288 814.467a14.326 14.326 0 01-12.962 0c-3.58-2.067-3.58-5.417 0-7.484a14.323 14.323 0 0112.962 0c3.58 2.067 3.58 5.417 0 7.484z" class="cls-3" data-name="Path 4286" transform="translate(-228.646 -699.146)"/>
    <path id="Path_4287" d="M412.288 814.467a14.326 14.326 0 01-12.962 0c-3.58-2.067-3.58-5.417 0-7.484a14.323 14.323 0 0112.962 0c3.58 2.067 3.58 5.417 0 7.484z" class="cls-3" data-name="Path 4287" transform="translate(-219.886 -704.402)"/>
    <path id="Path_4288" d="M412.288 814.467a14.326 14.326 0 01-12.962 0c-3.58-2.067-3.58-5.417 0-7.484a14.323 14.323 0 0112.962 0c3.58 2.067 3.58 5.417 0 7.484z" class="cls-3" data-name="Path 4288" transform="translate(-228.646 -699.146)"/>
    <path id="Path_4223" d="M939.72 722.2l-.164-5.572 7.457 4.662s-2.107 5.051-2.335 4.875-4.958-3.965-4.958-3.965z" class="cls-3" data-name="Path 4223" transform="translate(-828.939 -603.816)"/>
    <path id="Path_4224" d="M999.548 721.8l-57.679-32.2c-3.455-1.928-3.017-5.287.98-7.5l104.607-57.977c4-2.215 10.038-2.448 13.493-.519l57.68 32.2c3.455 1.928 3.016 5.288-.981 7.5l-104.607 57.977c-3.997 2.219-10.041 2.449-13.493.519z" class="cls-3" data-name="Path 4224" transform="translate(-828.932 -566.95)"/>
    <path id="Path_4225" d="M1044.459 690.95l41.574-66.824c4-2.215 10.038-2.448 13.493-.519l57.68 32.2c3.455 1.928 3.016 5.288-.981 7.5l-104.607 57.977a15.944 15.944 0 01-6.949 1.813z" class="cls-3" data-name="Path 4225" transform="translate(-867.51 -566.95)"/>
    <path id="Path_4226" d="M1116.443 688.339l10.62-13.84 58.95-2.3-.024 6.491-64.452 19.683z" class="cls-3" data-name="Path 4226" transform="translate(-893.978 -586.453)"/>
    <path id="Path_4227" d="M1027.643 775.312c0 .966-.71 1.354-1.584.867a3.338 3.338 0 01-1.578-2.632c0-.966.71-1.355 1.584-.867a3.339 3.339 0 011.578 2.632z" class="cls-3" data-name="Path 4227" transform="translate(-860.164 -625.643)"/>
    <path id="Path_4228" d="M999.564 711.365l-57.68-32.195c-3.455-1.929-3.016-5.287.981-7.5l104.607-57.977c4-2.215 10.037-2.448 13.493-.519l57.679 32.2c3.455 1.928 3.015 5.287-.98 7.5l-104.608 57.977c-3.996 2.211-10.037 2.443-13.492.514z" class="cls-3" data-name="Path 4228" transform="translate(-828.938 -562.871)"/>
    <path id="Path_4229" d="M1170.7 644.458l-15.926-8.89c-.657-.366-.572-1.011.187-1.432a2.968 2.968 0 012.576-.1l15.926 8.89c.658.366.573 1.011-.187 1.432a2.973 2.973 0 01-2.576.1z" class="cls-3" data-name="Path 4229" transform="translate(-907.909 -571.44)"/>
    <path id="Path_4230" d="M988.975 754.341l-12.792-7.141a2.262 2.262 0 01-.983-1.816c0-.7.446-1.019.987-.717l12.793 7.14a2.261 2.261 0 01.983 1.816c-.002.697-.446 1.02-.988.718z" class="cls-3" data-name="Path 4230" transform="translate(-842.044 -614.732)"/>
    <path id="Path_4231" d="M1197.25 696.087l6.31-3.5a1.562 1.562 0 00.681-1.252c0-.48-.305-.7-.679-.5l-6.31 3.5a1.56 1.56 0 00-.681 1.251c-.002.485.304.708.679.501z" class="cls-3" data-name="Path 4231" transform="translate(-923.439 -593.709)"/>
    <path id="Path_4232" d="M1183.1 704.945l6.309-3.5a1.561 1.561 0 00.683-1.251c0-.48-.3-.7-.679-.5l-6.31 3.5a1.558 1.558 0 00-.682 1.25c-.005.486.301.709.679.501z" class="cls-3" data-name="Path 4232" transform="translate(-918.236 -597.172)"/>
    <path id="Path_4233" d="M1063.318 620.078l-87.965 48.753a2.9 2.9 0 00-.008 5.123l53.311 29.757a3.171 3.171 0 003.07 0l87.964-48.753a2.9 2.9 0 00.009-5.123l-53.312-29.757a3.171 3.171 0 00-3.069 0z" class="cls-3" data-name="Path 4233" transform="translate(-841.534 -565.927)"/>
    <path id="Path_4237" d="M1057.629 707.384l-24.5-13.628c-1.61-.9-1.406-2.474.453-3.508a7.274 7.274 0 016.307-.252l24.5 13.628c1.609.9 1.406 2.474-.453 3.508a7.277 7.277 0 01-6.307.252z" class="cls-3" data-name="Path 4237" transform="translate(-862.944 -593.172)"/>
    <path id="Path_4238" d="M1038.511 717.819l-24.5-13.628c-1.61-.9-1.406-2.474.452-3.508a7.273 7.273 0 016.307-.252l24.5 13.628c1.611.9 1.407 2.474-.453 3.508a7.272 7.272 0 01-6.306.252z" class="cls-3" data-name="Path 4238" transform="translate(-855.914 -597.251)"/>
    <path id="Path_4223-2" fill="#dbefff" d="M939.711 722.075l-.155-5.451 7.028 4.561s-1.986 4.942-2.2 4.77-4.673-3.88-4.673-3.88z" data-name="Path 4223" transform="translate(-832.414 -606.354)"/>
    <path id="Path_4224-2" d="M996.1 719.651l-54.365-31.5c-3.257-1.887-2.844-5.173.924-7.341l98.6-56.724c3.768-2.167 9.462-2.395 12.718-.508l54.365 31.5c3.256 1.887 2.843 5.174-.925 7.341l-98.6 56.724c-3.767 2.167-9.461 2.394-12.717.508z" class="cls-5" data-name="Path 4224" transform="translate(-832.407 -568.245)"/>
    <path id="Path_4225-2" d="M1044.459 689.466l39.186-65.379c3.768-2.167 9.461-2.395 12.717-.508l54.366 31.5c3.256 1.887 2.842 5.174-.925 7.341l-98.6 56.724a14.6 14.6 0 01-6.55 1.774z" class="cls-5" data-name="Path 4225" transform="translate(-874.797 -568.245)"/>
    <path id="Path_4226-2" d="M1116.443 687.99l10.01-13.541 55.563-2.249-.022 6.35-60.749 19.257z" class="cls-5" data-name="Path 4226" transform="translate(-903.88 -588.406)"/>
    <path id="Path_4227-2" d="M1027.461 775.25c0 .945-.669 1.325-1.493.848a3.288 3.288 0 01-1.488-2.575c0-.945.669-1.326 1.493-.848a3.288 3.288 0 011.488 2.575z" class="cls-6" data-name="Path 4227" transform="translate(-866.725 -628.916)"/>
    <path id="Path_4228-2" d="M996.116 709.214l-54.366-31.5c-3.256-1.887-2.843-5.173.924-7.34l98.6-56.724c3.768-2.167 9.461-2.395 12.718-.508l54.365 31.5c3.257 1.887 2.842 5.173-.924 7.341l-98.6 56.724c-3.767 2.167-9.461 2.393-12.717.507z" class="cls-7" data-name="Path 4228" transform="translate(-832.414 -564.03)"/>
    <path id="Path_4229-2" d="M1169.76 644.227l-15.011-8.7c-.619-.358-.539-.989.176-1.4a2.707 2.707 0 012.428-.1l15.011 8.7c.62.358.54.989-.176 1.4a2.71 2.71 0 01-2.428.1z" class="cls-5" data-name="Path 4229" transform="translate(-919.188 -572.887)"/>
    <path id="Path_4230-2" fill="#2c4482" d="M988.183 754.129l-12.057-6.987a2.234 2.234 0 01-.927-1.777c0-.681.42-1 .931-.7l12.057 6.985a2.235 2.235 0 01.926 1.777c0 .682-.419.998-.93.702z" data-name="Path 4230" transform="translate(-846.815 -617.638)"/>
    <path id="Path_4231-2" d="M1197.211 695.972l5.947-3.421a1.544 1.544 0 00.642-1.225c0-.47-.288-.688-.64-.485l-5.948 3.422a1.541 1.541 0 00-.642 1.224c-.001.47.288.688.641.485z" class="cls-6" data-name="Path 4231" transform="translate(-936.253 -595.906)"/>
    <path id="Path_4232-2" d="M1183.057 704.83l5.947-3.422a1.541 1.541 0 00.643-1.224c0-.47-.287-.688-.64-.486l-5.948 3.422a1.539 1.539 0 00-.643 1.223c0 .472.284.691.641.487z" class="cls-6" data-name="Path 4232" transform="translate(-930.535 -599.486)"/>
    <path id="Path_4233-2" fill="url(#linear-gradient-24)" d="M1058.174 620.07l-82.91 47.7a2.894 2.894 0 00-.008 5.012l50.248 29.114a2.894 2.894 0 002.894 0l82.91-47.7a2.894 2.894 0 00.008-5.012l-50.249-29.114a2.893 2.893 0 00-2.893 0z" data-name="Path 4233" transform="translate(-846.255 -567.188)"/>
    <path id="Path_4237-2" d="M1056.158 706.995l-23.094-13.334c-1.517-.876-1.325-2.421.427-3.432a6.631 6.631 0 015.944-.247l23.095 13.334c1.517.876 1.325 2.421-.427 3.432a6.634 6.634 0 01-5.945.247z" class="cls-10" data-name="Path 4237" transform="translate(-869.78 -595.351)"/>
    <path id="Path_4238-2" d="M1037.041 717.43l-23.095-13.33c-1.517-.876-1.326-2.42.426-3.432a6.631 6.631 0 015.945-.247l23.094 13.333c1.518.876 1.326 2.42-.427 3.432a6.63 6.63 0 01-5.943.244z" class="cls-10" data-name="Path 4238" transform="translate(-862.055 -599.568)"/>
    <path id="Path_4223-3" d="M945.94 719.474l.144-2.85-6.528 2.384a16.442 16.442 0 002.044 2.492c.2-.089 4.34-2.026 4.34-2.026z" class="cls-11" data-name="Path 4223" transform="translate(-751.156 -608.755)"/>
    <path id="Path_4224-3" d="M1045.818 712.713l50.491-29.255c3.025-1.752 2.64-4.8-.858-6.818l-91.57-52.681c-3.5-2.013-8.787-2.224-11.812-.472l-50.491 29.254c-3.024 1.752-2.641 4.8.859 6.817l91.57 52.682c3.498 2.014 8.787 2.225 11.811.473z" class="cls-11" data-name="Path 4224" transform="translate(-903.412 -570.431)"/>
    <path id="Path_4225-3" fill="#5dabff" d="M1145.194 684.68l-36.394-60.72c-3.5-2.013-8.787-2.224-11.811-.472l-50.489 29.254c-3.024 1.752-2.64 4.8.858 6.817l16.318 9.388 75.253 43.294a13.552 13.552 0 006.083 1.647z" data-name="Path 4225" transform="translate(-1008.332 -570.431)"/>
    <path id="Path_4226-3" fill="#5dabfb" d="M1177.343 685.242l-9.3-11.185-51.6-1.858v3.458l56.44 17.694z" data-name="Path 4226" transform="translate(-1080.325 -590.079)"/>
    <path id="Path_4228-3" d="M1045.834 702.277l50.491-29.254c3.024-1.753 2.64-4.8-.858-6.817l-91.567-52.682c-3.5-2.013-8.787-2.224-11.812-.472l-50.491 29.255c-3.024 1.752-2.64 4.8.858 6.817l91.571 52.682c3.495 2.012 8.784 2.224 11.808.471z" class="cls-7" data-name="Path 4228" transform="translate(-903.436 -562.268)"/>
    <path id="Path_4239" fill="#c4c4c4" d="M951.95 623.784l8.124-4.707c.486-.282.425-.773-.138-1.1l-10.028-5.848a2.112 2.112 0 00-1.9-.076l-8.123 4.707c-.487.282-.425.773.138 1.1l10.028 5.848a2.111 2.111 0 001.899.076z" data-name="Path 4239" transform="translate(-852.629 -553.508)"/>
    <path id="Path_4240" fill="#ffb100" d="M412.288 814.467a14.326 14.326 0 01-12.962 0c-3.58-2.067-3.58-5.417 0-7.484a14.323 14.323 0 0112.962 0c3.58 2.067 3.58 5.417 0 7.484z" data-name="Path 4240" transform="translate(-230.311 -704.402)"/>
    <path id="Path_4241" fill="#eb041b" d="M412.288 814.467a14.326 14.326 0 01-12.962 0c-3.58-2.067-3.58-5.417 0-7.484a14.323 14.323 0 0112.962 0c3.58 2.067 3.58 5.417 0 7.484z" data-name="Path 4241" transform="translate(-239.071 -699.146)"/>
    <path id="Path_4242" d="M412.288 814.467a14.326 14.326 0 01-12.962 0c-3.58-2.067-3.58-5.417 0-7.484a14.323 14.323 0 0112.962 0c3.58 2.067 3.58 5.417 0 7.484z" class="cls-17" data-name="Path 4242" transform="translate(-230.311 -704.402)"/>
    <path id="Path_4243" d="M412.288 814.467a14.326 14.326 0 01-12.962 0c-3.58-2.067-3.58-5.417 0-7.484a14.323 14.323 0 0112.962 0c3.58 2.067 3.58 5.417 0 7.484z" class="cls-17" data-name="Path 4243" transform="translate(-239.071 -699.146)"/>
    <ellipse id="Ellipse_36" cx="30.585" cy="17.303" class="cls-3" data-name="Ellipse 36" rx="30.585" ry="17.303" transform="translate(136.771 22.791)"/>
    <path id="Path_4255" d="M633.829 1076.87a22.682 22.682 0 01-.661 7.1c-.968 3.874-4.342 7.551-10.041 10.259-12.5 5.944-31.424 4.983-42.259-2.147-5.051-3.323-7.793-6.7-7.856-10.919-.163-2.282-.219-5.833-.219-5.833.4-1.392 2-2.758 3.019-4.057a20.384 20.384 0 018.483-6.8c12.5-5.944 31.424-4.982 42.259 2.148 4.564 3.004 6.957 6.623 7.275 10.249z" class="cls-18" data-name="Path 4255" transform="translate(-447.132 -1039.259)"/>
    <ellipse id="Ellipse_37" cx="30.585" cy="17.303" class="cls-10" data-name="Ellipse 37" rx="30.585" ry="17.303" transform="translate(125.649 20.167)"/>
    <ellipse id="Ellipse_38" cx="30.585" cy="17.303" class="cls-19" data-name="Ellipse 38" rx="30.585" ry="17.303" transform="translate(125.649 19.223)"/>
    <ellipse id="Ellipse_39" cx="21.381" cy="12.096" class="cls-18" data-name="Ellipse 39" rx="21.381" ry="12.096" transform="translate(134.83 23.975)"/>
    <path id="Path_4256" d="M593.744 1068.667c9.1-4.262 22.574-3.546 30.1 1.6 3 2.051 4.6 4.5 4.87 6.964.319-2.956-1.267-5.986-4.87-8.447-7.53-5.145-21.007-5.86-30.1-1.6-5.47 2.563-8.109 6.343-7.707 10.067.348-3.223 2.963-6.361 7.707-8.584z" class="cls-20" data-name="Path 4256" transform="translate(-451.166 -1040.428)"/>
    <path id="Path_4257" d="M624.5 1073.769l-4.632 1.248-5.484-.838-3.156.838-2.318.379-.033 2.665a2.5 2.5 0 000 .36v.006c.076 1.286 1.033 2.652 1.4 3.75l-1.947.387-3.252-.824.884 1.12 4.454-.019a1.085 1.085 0 01-.693 1.1 3.305 3.305 0 01-2.813.121l-.948-1.2h-.874a4.535 4.535 0 01-1.2-2.469l-1.726.1-2.493-2.275v2.423a4.389 4.389 0 00.92 2.39l-1.255.4v2.424l2.4 1.6 2.77-1.371a10.526 10.526 0 008.971.04c1.385-.686 1.893-1.5 1.949-2.347v-.01a2.629 2.629 0 000-.313v-2.1l-.66.076c-.722-1.444-1.621-2.719-.416-3.315a3.313 3.313 0 013.534.376 2.67 2.67 0 011.365 2.454l4.066.112a4.175 4.175 0 000-.946v-1.478l-.636-1.54 1.824-.9z" class="cls-20" data-name="Path 4257" transform="translate(-455.241 -1043.29)"/>
    <path id="Path_4258" d="M602 1082.083a5.847 5.847 0 01-2.328-3.9l4.219-.25a4.406 4.406 0 001.992 3.12 3.583 3.583 0 003.841.425c2.742-1.357-3.84-5.68.953-8.052a10.2 10.2 0 018.685.066l2.742-1.358 2.4 1.6-2.689 1.331a3.84 3.84 0 011.5 3.535l-4.066-.112a2.67 2.67 0 00-1.365-2.454 3.313 3.313 0 00-3.534-.376c-2.529 1.252 4.212 5.5-.874 8.012a10.526 10.526 0 01-8.971-.04l-2.77 1.371-2.4-1.6z" class="cls-10" data-name="Path 4258" transform="translate(-455.241 -1042.79)"/>
    <path id="Path_4259" d="M602 1081.419a5.846 5.846 0 01-2.328-3.9l4.219-.251a4.406 4.406 0 001.992 3.12 3.584 3.584 0 003.841.425c2.742-1.358-3.84-5.68.953-8.052a10.2 10.2 0 018.685.065l2.742-1.357 2.4 1.6-2.689 1.331a3.84 3.84 0 011.5 3.535l-4.066-.112a2.67 2.67 0 00-1.365-2.454 3.312 3.312 0 00-3.534-.376c-2.529 1.252 4.212 5.5-.874 8.013a10.531 10.531 0 01-8.971-.04l-2.77 1.37-2.4-1.6z" class="cls-21" data-name="Path 4259" transform="translate(-455.241 -1042.587)"/>
    <path id="Path_4260" d="M633.829 1064.419a22.677 22.677 0 01-.661 7.1c-.968 3.874-4.342 7.55-10.041 10.26-12.5 5.944-31.424 4.983-42.259-2.147-5.051-3.324-7.793-6.7-7.856-10.92-.163-2.281-.219-5.833-.219-5.833.4-1.392 2-2.758 3.019-4.057a20.387 20.387 0 018.483-6.8c12.5-5.944 31.424-4.983 42.259 2.147 4.564 3.005 6.957 6.623 7.275 10.25z" class="cls-18" data-name="Path 4260" transform="translate(-447.132 -1035.455)"/>
    <ellipse id="Ellipse_40" cx="30.585" cy="17.303" class="cls-10" data-name="Ellipse 40" rx="30.585" ry="17.303" transform="translate(125.649 11.519)"/>
    <ellipse id="Ellipse_41" cx="30.585" cy="17.303" class="cls-19" data-name="Ellipse 41" rx="30.585" ry="17.303" transform="translate(125.649 10.576)"/>
    <path id="Path_4261" d="M623.847 1056.332c-7.53-5.145-21.007-5.861-30.1-1.6s-10.367 11.887-2.837 17.031 21.007 5.861 30.1 1.6 10.367-11.886 2.837-17.031z" class="cls-18" data-name="Path 4261" transform="translate(-451.165 -1036.624)"/>
    <path id="Path_4262" d="M593.744 1056.215c9.1-4.261 22.574-3.545 30.1 1.6 3 2.051 4.6 4.5 4.87 6.965.319-2.957-1.267-5.986-4.87-8.447-7.53-5.145-21.007-5.861-30.1-1.6-5.47 2.563-8.109 6.342-7.707 10.067.348-3.224 2.963-6.362 7.707-8.585z" class="cls-20" data-name="Path 4262" transform="translate(-451.166 -1036.624)"/>
    <path id="Path_4263" d="M624.5 1061.318l-4.632 1.248-5.484-.838-3.156.838-2.318.379-.033 2.665a2.5 2.5 0 000 .36v.006c.076 1.286 1.033 2.652 1.4 3.749l-1.947.387-3.252-.824.884 1.12 4.454-.019a1.086 1.086 0 01-.693 1.1 3.308 3.308 0 01-2.813.121l-.948-1.2h-.874a4.533 4.533 0 01-1.2-2.468l-1.726.1-2.493-2.276v2.424a4.394 4.394 0 00.92 2.39l-1.255.4v2.424l2.4 1.6 2.77-1.37a10.529 10.529 0 008.971.04c1.385-.686 1.893-1.5 1.949-2.347v-.01a2.617 2.617 0 000-.312v-2.1l-.66.076c-.722-1.445-1.621-2.72-.416-3.316a3.314 3.314 0 013.534.375 2.67 2.67 0 011.365 2.454l4.066.112a4.169 4.169 0 000-.945v-1.478l-.636-1.54 1.824-.9z" class="cls-20" data-name="Path 4263" transform="translate(-455.241 -1039.486)"/>
    <path id="Path_4264" d="M602 1069.632a5.844 5.844 0 01-2.328-3.9l4.219-.251a4.4 4.4 0 001.992 3.12 3.583 3.583 0 003.841.425c2.742-1.358-3.84-5.679.953-8.052a10.2 10.2 0 018.685.066l2.742-1.358 2.4 1.6-2.689 1.331a3.841 3.841 0 011.5 3.536l-4.066-.113a2.67 2.67 0 00-1.365-2.454 3.313 3.313 0 00-3.534-.375c-2.529 1.251 4.212 5.495-.874 8.012a10.526 10.526 0 01-8.971-.04l-2.77 1.371-2.4-1.6z" class="cls-10" data-name="Path 4264" transform="translate(-455.241 -1038.986)"/>
    <path id="Path_4265" d="M602 1068.967a5.844 5.844 0 01-2.328-3.9l4.219-.251a4.4 4.4 0 001.992 3.12 3.583 3.583 0 003.841.425c2.742-1.357-3.84-5.68.953-8.052a10.2 10.2 0 018.685.066l2.742-1.358 2.4 1.6-2.689 1.33a3.841 3.841 0 011.5 3.536l-4.066-.112a2.669 2.669 0 00-1.365-2.454 3.312 3.312 0 00-3.534-.376c-2.529 1.251 4.212 5.5-.874 8.012a10.526 10.526 0 01-8.971-.04l-2.77 1.371-2.4-1.6z" class="cls-21" data-name="Path 4265" transform="translate(-455.241 -1038.783)"/>
  </g>
</svg>