<svg xmlns="http://www.w3.org/2000/svg" width="313.672" height="194.414">
  <defs>
    <linearGradient id="linear-gradient" x2="1" y1=".5" y2=".5" gradientUnits="objectBoundingBox">
      <stop offset=".421" stop-color="#bdc1e4"/>
      <stop offset=".577" stop-color="#dce1f4"/>
    </linearGradient>
    <linearGradient id="linear-gradient-2" x2="1" y1=".5" y2=".5" gradientUnits="objectBoundingBox">
      <stop offset="0" stop-color="#75c97c"/>
      <stop offset=".277" stop-color="#01f484"/>
      <stop offset=".859" stop-color="#0e861c"/>
      <stop offset="1" stop-color="#177c05"/>
    </linearGradient>
    <linearGradient id="linear-gradient-4" x2="1" y1=".5" y2=".5" gradientUnits="objectBoundingBox">
      <stop offset="0" stop-color="#a5aace"/>
      <stop offset="1" stop-color="#fff"/>
    </linearGradient>
    <linearGradient id="linear-gradient-62" x2="1" y1=".5" y2=".5" gradientUnits="objectBoundingBox">
      <stop offset=".396" stop-color="#d0d4f6"/>
      <stop offset=".552" stop-color="#bfc3e6"/>
      <stop offset=".574" stop-color="#bdc1e4"/>
    </linearGradient>
    <linearGradient id="linear-gradient-63" x2="1" y1=".5" y2=".5" gradientUnits="objectBoundingBox">
      <stop offset="0" stop-color="#c6cbe7"/>
      <stop offset="1" stop-color="#fff"/>
    </linearGradient>
    <linearGradient id="linear-gradient-64" x2="1" y1=".5" y2=".5" gradientUnits="objectBoundingBox">
      <stop offset="0" stop-color="#75c97c"/>
      <stop offset=".396" stop-color="#75c97c"/>
      <stop offset=".458" stop-color="#46c451"/>
      <stop offset=".574" stop-color="#369f3f"/>
      <stop offset="1" stop-color="#75c97c"/>
    </linearGradient>
    <style>
      .cls-2{fill:url(#linear-gradient-2)}.cls-3,.cls-6{mix-blend-mode:multiply;isolation:isolate}.cls-3{fill:url(#linear-gradient-4)}.cls-4{fill:#f7f7fc}.cls-5{fill:url(#linear-gradient-62)}.cls-6{fill:url(#linear-gradient-63)}.cls-7{fill:url(#linear-gradient-64)}.cls-8{fill:#dce1f4}.cls-9{fill:#d0d4f6}.cls-10{fill:#bdc1e4}.cls-12{fill:#e6a625}.cls-13{fill:#fff}.cls-15{fill:#d9950d}.cls-23{fill:#004998}
    </style>
  </defs>
  <g id="Group_4415" data-name="Group 4415" transform="translate(-5.176)">
    <path id="Path_3611" fill="url(#linear-gradient)" d="M1833.752 951.12l126.057-72.78c11.993-6.925 31.619-6.925 43.612 0l126.058 72.78a20.124 20.124 0 017.029 6.352c4.075-6.336 1.75-13.762-7.029-18.83l-126.058-72.783c-11.993-6.922-31.618-6.922-43.612 0l-126.057 72.783c-8.78 5.068-11.1 12.494-7.03 18.826a20.136 20.136 0 017.03-6.348z" data-name="Path 3611" transform="translate(-1819.604 -847.379)"/>
    <path id="Path_3612" d="M1833.979 965.274l126.059 72.783c11.993 6.922 31.619 6.922 43.609 0l126.058-72.78a20.186 20.186 0 007.029-6.349 20.122 20.122 0 00-7.029-6.352L2003.647 879.8c-11.992-6.925-31.618-6.925-43.611 0l-126.057 72.78a20.135 20.135 0 00-7.03 6.349 20.128 20.128 0 007.03 6.345z" class="cls-2" data-name="Path 3612" transform="translate(-1819.83 -848.835)"/>
    <path id="Path_3613" d="M1833.979 965.274l126.059 72.783c11.993 6.922 31.619 6.922 43.609 0l126.058-72.78a20.186 20.186 0 007.029-6.349 20.122 20.122 0 00-7.029-6.352L2003.647 879.8c-11.992-6.925-31.618-6.925-43.611 0l-126.057 72.78a20.135 20.135 0 00-7.03 6.349 20.128 20.128 0 007.03 6.345z" class="cls-2" data-name="Path 3613" transform="translate(-1819.83 -848.835)"/>
    <path id="Path_3646" d="M1966.531 961.643L1930.775 941c-1.964-1.136-2.946-2.624-2.946-4.11s.983-2.973 2.946-4.108l35.756-20.646a15.749 15.749 0 0114.233 0l35.756 20.646c1.965 1.134 2.948 2.62 2.948 4.107s-.983 2.975-2.948 4.11l-35.756 20.641a15.71 15.71 0 01-14.233 0z" class="cls-3" data-name="Path 3646" transform="translate(-1870.715 -828.837)"/>
    <path id="Path_3647" d="M2007.443 961.184L2042.4 941c1.965-1.136 2.948-2.624 2.948-4.11s-.983-2.973-2.948-4.107l-35.756-20.646a12.213 12.213 0 00-3.122-1.218l-3.994-.482v50.745z" class="cls-3" data-name="Path 3647" transform="translate(-1896.595 -828.837)"/>
    <path id="Path_3648" d="M2005.535 928.8l-23.235-13.412a14.445 14.445 0 00-13.066 0l-23.24 13.412h-12.3v9.312c0 1.365.905 2.731 2.709 3.772l32.831 18.957a14.439 14.439 0 0013.066 0l32.834-18.957c1.8-1.04 2.706-2.407 2.706-3.772V928.8z" class="cls-3" data-name="Path 3648" transform="translate(-1872.83 -830.06)"/>
    <path id="Path_3649" d="M2016.52 955.944l-35.756 20.641a15.711 15.711 0 01-14.233 0l-35.756-20.641c-1.964-1.136-2.946-2.624-2.946-4.11v8.957c0 1.488.983 2.974 2.946 4.109l35.756 20.644a15.733 15.733 0 0014.233 0l35.756-20.644c1.965-1.133 2.948-2.621 2.948-4.109v-8.957c.001 1.486-.983 2.975-2.948 4.11z" class="cls-3" data-name="Path 3649" transform="translate(-1870.715 -843.779)"/>
    <path id="Path_3650" d="M1966.531 926.334l-35.756-20.64c-1.964-1.136-2.946-2.624-2.946-4.11s.983-2.974 2.946-4.108l35.756-20.645a15.741 15.741 0 0114.233 0l35.756 20.646c1.965 1.133 2.948 2.619 2.948 4.107s-.983 2.975-2.948 4.11l-35.756 20.64a15.706 15.706 0 01-14.233 0z" class="cls-3" data-name="Path 3650" transform="translate(-1870.715 -816.092)"/>
    <path id="Path_3651" d="M2007.443 925.876l34.958-20.182c1.965-1.136 2.948-2.624 2.948-4.11s-.983-2.974-2.948-4.107l-35.756-20.646a12.2 12.2 0 00-3.122-1.218l-3.994-.482v50.746z" class="cls-3" data-name="Path 3651" transform="translate(-1896.595 -816.092)"/>
    <path id="Path_3652" d="M2005.535 893.5l-23.235-13.42a14.444 14.444 0 00-13.066 0l-23.24 13.42h-12.3v9.311c0 1.365.905 2.73 2.709 3.772l32.831 18.957a14.435 14.435 0 0013.066 0l32.834-18.957c1.8-1.04 2.706-2.407 2.706-3.772V893.5z" class="cls-3" data-name="Path 3652" transform="translate(-1872.83 -817.315)"/>
    <path id="Path_3653" d="M2016.52 920.636l-35.756 20.64a15.705 15.705 0 01-14.233 0l-35.756-20.64c-1.964-1.135-2.946-2.624-2.946-4.11v8.957c0 1.487.983 2.973 2.946 4.109l35.756 20.643a15.727 15.727 0 0014.233 0l35.756-20.643c1.965-1.133 2.948-2.622 2.948-4.109v-8.957c.001 1.486-.983 2.974-2.948 4.11z" class="cls-3" data-name="Path 3653" transform="translate(-1870.715 -831.034)"/>
    <path id="Path_3654" d="M1966.531 891.028l-35.756-20.644c-1.964-1.134-2.946-2.622-2.946-4.107s.983-2.974 2.946-4.11l35.756-20.644a15.748 15.748 0 0114.233 0l35.756 20.644c1.965 1.137 2.948 2.623 2.948 4.11s-.983 2.973-2.948 4.107l-35.756 20.644a15.726 15.726 0 01-14.233 0z" class="cls-3" data-name="Path 3654" transform="translate(-1870.715 -803.347)"/>
    <path id="Path_3655" d="M2016.52 885.326l-35.756 20.644a15.728 15.728 0 01-14.233 0l-35.756-20.644c-1.964-1.134-2.946-2.622-2.946-4.107v8.957c0 1.488.983 2.973 2.946 4.107l35.756 20.644a15.727 15.727 0 0014.233 0l35.756-20.644c1.965-1.134 2.948-2.619 2.948-4.107v-8.957c.001 1.481-.983 2.973-2.948 4.107z" class="cls-3" data-name="Path 3655" transform="translate(-1870.715 -818.29)"/>
    <path id="Path_3778" d="M1478.945 926.886v-4.562l-.8.461c-1.962 1.134-2.941 2.615-2.941 4.1s.98 2.969 2.941 4.1l15.793 9.118 2.041-1.182-14.332-8.275c-1.799-1.035-2.702-2.398-2.702-3.76z" class="cls-3" data-name="Path 3778" transform="translate(-1298.904 -830.182)"/>
    <path id="Path_3779" d="M1475.206 929.463v24.406c0 1.484.98 2.967 2.941 4.1l15.793 9.116v-24.4l-15.793-9.119c-1.961-1.134-2.941-2.619-2.941-4.103z" class="cls-3" data-name="Path 3779" transform="translate(-1298.904 -832.759)"/>
    <path id="Path_3780" d="M1506.563 972.709l-2.041 1.178v-24.4l2.041-1.181z" class="cls-3" data-name="Path 3780" transform="translate(-1309.486 -839.559)"/>
    <path id="Path_3784" d="M1558.8 865.216l-4.751-2.744-22.9 13.22-22.894-13.22-4.752 2.744 22.895 13.219L1506.2 890.1l4.752 2.745 20.2-11.666 20.207 11.666 4.753-2.745-20.2-11.666z" class="cls-3" data-name="Path 3784" transform="translate(-1309.12 -808.578)"/>
    <path id="Path_3785" d="M1556.733 900.106l-22.894-13.22-22.893 13.22 15.791 9.117a15.7 15.7 0 0014.205 0l15.814-9.132z" class="cls-3" data-name="Path 3785" transform="translate(-1311.804 -817.39)"/>
    <path id="Path_3786" d="M1556.733 907.573l-15.791 9.117a15.705 15.705 0 01-14.205 0l-15.791-9.117v24.4l15.791 9.117a15.689 15.689 0 0014.205 0l15.791-9.117z" class="cls-3" data-name="Path 3786" transform="translate(-1311.804 -824.857)"/>
    <path id="Path_3787" d="M1516.832 875.709l-22.895-13.217-15.79 9.117c-1.962 1.134-2.941 2.618-2.941 4.1s.98 2.968 2.941 4.1l15.79 9.118z" class="cls-3" data-name="Path 3787" transform="translate(-1298.904 -808.585)"/>
    <path id="Path_3788" d="M1493.94 896.4l-15.793-9.119c-1.962-1.131-2.941-2.616-2.941-4.1v24.4c0 1.484.98 2.969 2.941 4.1l15.793 9.118z" class="cls-3" data-name="Path 3788" transform="translate(-1298.904 -816.052)"/>
    <path id="Path_3789" d="M1506.563 895.216l-2.041 1.179V920.8l2.041-1.179v-22.048l20.851-12.037v-2.36z" class="cls-3" data-name="Path 3789" transform="translate(-1309.486 -816.05)"/>
    <path id="Path_3793" d="M1533.839 865.892l22.9-13.217-15.793-9.117a15.7 15.7 0 00-14.205 0l-15.791 9.117z" class="cls-3" data-name="Path 3793" transform="translate(-1311.804 -801.138)"/>
    <path id="Path_3794" d="M1546.769 874.358V872l22.9-13.216v2.357z" class="cls-3" data-name="Path 3794" transform="translate(-1324.735 -807.247)"/>
    <path id="Path_3795" d="M1533.838 874.358V872l-22.893-13.216v2.357z" class="cls-3" data-name="Path 3795" transform="translate(-1311.804 -807.247)"/>
    <path id="Path_3797" d="M1740.39 489.328l-35.69-20.605c-1.961-1.133-2.942-2.616-2.942-4.1s.98-2.968 2.942-4.1l35.69-20.605a15.7 15.7 0 0114.2 0l35.69 20.605c1.962 1.132 2.941 2.616 2.941 4.1s-.979 2.968-2.941 4.1l-35.69 20.605a15.7 15.7 0 01-14.2 0z" class="cls-3" data-name="Path 3797" transform="translate(-1582.933 -365.806)"/>
    <path id="Path_3798" d="M1790.284 489.122l-35.69 20.605a15.692 15.692 0 01-14.2 0l-35.69-20.6c-1.961-1.133-2.942-2.616-2.942-4.1V539c0 1.485.98 2.969 2.942 4.1l35.69 20.605c1.961 1.132 49.709-3.7 52.28-3.7s106.626-62.836 106.626-64.32l-83.42-50.8c-.003 1.485-23.634 43.104-25.596 44.237z" class="cls-3" data-name="Path 3798" transform="translate(-1582.933 -386.206)"/>
    <path id="Path_3799" d="M1768.344 471.569l8.818 5.091-8.818 5.092-8.818-5.092z" class="cls-3" data-name="Path 3799" transform="translate(-1603.784 -377.845)"/>
    <path id="Path_3800" d="M1790.65 484.448l8.818 5.091-8.818 5.092-8.818-5.092z" class="cls-3" data-name="Path 3800" transform="translate(-1611.836 -382.493)"/>
    <path id="Path_3801" d="M1812.957 471.569l8.819 5.091-8.819 5.092-8.818-5.092z" class="cls-3" data-name="Path 3801" transform="translate(-1619.888 -377.845)"/>
    <path id="Path_3802" d="M1768.344 497.326l8.818 5.091-8.818 5.093-8.818-5.093z" class="cls-3" data-name="Path 3802" transform="translate(-1603.784 -387.142)"/>
    <path id="Path_3803" d="M1746.037 458.689l8.818 5.092-8.818 5.092-8.818-5.092z" class="cls-3" data-name="Path 3803" transform="translate(-1595.733 -373.195)"/>
    <path id="Path_3804" d="M1790.65 458.689l8.818 5.092-8.818 5.092-8.818-5.092z" class="cls-3" data-name="Path 3804" transform="translate(-1611.836 -373.195)"/>
    <path id="Path_3805" d="M1768.344 445.811l8.818 5.09-8.818 5.092-8.818-5.092z" class="cls-3" data-name="Path 3805" transform="translate(-1603.784 -368.547)"/>
    <path id="Path_3806" d="M1723.73 471.569l8.818 5.091-8.818 5.092-8.818-5.092z" class="cls-3" data-name="Path 3806" transform="translate(-1587.681 -377.845)"/>
    <path id="Path_3807" d="M1746.037 484.448l8.818 5.091-8.818 5.092-8.818-5.092z" class="cls-3" data-name="Path 3807" transform="translate(-1595.733 -382.493)"/>
    <ellipse id="Ellipse_32" cx="22.398" cy="12.671" class="cls-3" data-name="Ellipse 32" rx="22.398" ry="12.671" transform="translate(145.922 14.203)"/>
    <path id="Path_3903" d="M544.746 1117.732a16.61 16.61 0 01-.484 5.2c-.709 2.837-3.18 5.53-7.353 7.514-9.157 4.353-23.013 3.649-30.948-1.573-3.7-2.434-5.707-4.908-5.753-8-.12-1.671-.16-4.272-.16-4.272.292-1.019 1.463-2.02 2.211-2.971a14.923 14.923 0 016.212-4.979c9.157-4.353 23.013-3.649 30.948 1.573 3.342 2.202 5.095 4.852 5.327 7.508z" class="cls-3" data-name="Path 3903" transform="translate(-362.262 -1092.676)"/>
    <ellipse id="Ellipse_33" cx="22.398" cy="12.671" class="cls-3" data-name="Ellipse 33" rx="22.398" ry="12.671" transform="translate(137.777 12.281)"/>
    <ellipse id="Ellipse_34" cx="22.398" cy="12.671" class="cls-3" data-name="Ellipse 34" rx="22.398" ry="12.671" transform="translate(137.777 11.59)"/>
    <ellipse id="Ellipse_35" cx="15.658" cy="8.858" class="cls-3" data-name="Ellipse 35" rx="15.658" ry="8.858" transform="translate(144.501 15.07)"/>
    <path id="Path_3904" d="M518.926 1112.748c6.661-3.121 16.532-2.6 22.046 1.171 2.2 1.5 3.371 3.292 3.566 5.1.234-2.166-.928-4.384-3.566-6.186-5.515-3.767-15.385-4.292-22.046-1.17-4.006 1.877-5.938 4.644-5.644 7.372.254-2.361 2.169-4.659 5.644-6.287z" class="cls-3" data-name="Path 3904" transform="translate(-368.751 -1094.556)"/>
    <path id="Path_3905" d="M545.021 1118.992l-3.392.913-4.016-.613-2.312.613-1.7.278-.024 1.952a1.884 1.884 0 000 .264 11.6 11.6 0 001.025 2.746l-1.426.283-2.382-.6.647.82 3.262-.014a.8.8 0 01-.508.805 2.423 2.423 0 01-2.06.089l-.695-.88h-.64a3.32 3.32 0 01-.877-1.807l-1.264.075-1.826-1.666v1.775a3.219 3.219 0 00.674 1.751l-.919.3v1.774l1.757 1.17 2.028-1a7.71 7.71 0 006.569.028c1.015-.5 1.386-1.1 1.427-1.718v-.007a1.846 1.846 0 000-.229v-1.539l-.483.055c-.529-1.057-1.186-1.991-.3-2.428a2.426 2.426 0 012.588.275 1.956 1.956 0 011 1.8l2.978.082a3.1 3.1 0 000-.692v-1.083l-.466-1.128 1.336-.661z" class="cls-3" data-name="Path 3905" transform="translate(-375.306 -1099.159)"/>
    <path id="Path_3906" d="M528.541 1124.642a4.283 4.283 0 01-1.7-2.856l3.09-.184a3.227 3.227 0 001.459 2.285 2.625 2.625 0 002.813.311c2.008-.994-2.812-4.16.7-5.9a7.466 7.466 0 016.36.048l2.009-.994 1.757 1.17-1.969.975a2.814 2.814 0 011.1 2.589l-2.978-.082a1.956 1.956 0 00-1-1.8 2.426 2.426 0 00-2.588-.275c-1.853.917 3.084 4.024-.64 5.868a7.713 7.713 0 01-6.569-.029l-2.028 1-1.757-1.17z" class="cls-3" data-name="Path 3906" transform="translate(-375.306 -1098.355)"/>
    <path id="Path_3907" d="M528.541 1123.977a4.281 4.281 0 01-1.7-2.856l3.09-.183a3.224 3.224 0 001.459 2.284 2.624 2.624 0 002.813.311c2.008-.994-2.812-4.159.7-5.9a7.469 7.469 0 016.36.048l2.009-.994 1.757 1.17-1.969.974a2.813 2.813 0 011.1 2.589l-2.978-.082a1.956 1.956 0 00-1-1.8 2.426 2.426 0 00-2.588-.275c-1.853.916 3.084 4.024-.64 5.868a7.708 7.708 0 01-6.569-.029l-2.028 1-1.757-1.17z" class="cls-3" data-name="Path 3907" transform="translate(-375.306 -1098.028)"/>
    <path id="Path_3991" d="M705.113 535.239c-8.088-4.85-21.327-5.07-29.572-.491s-8.371 12.223-.284 17.073 21.182 5.073 29.579.588c9.231-4.931 8.364-12.32.277-17.17z" class="cls-3" data-name="Path 3991" transform="translate(-520.944 -444.056)"/>
    <path id="Path_3992" d="M695.014 533.553c-7.68-4.606-20.254-4.815-28.084-.466s-7.951 11.608-.27 16.214 20.117 4.819 28.091.559c8.767-4.683 7.943-11.7.263-16.307z" class="cls-3" data-name="Path 3992" transform="translate(-517.517 -443.438)"/>
    <path id="Path_3993" d="M694.556 525.417c-7.68-4.606-20.254-4.815-28.084-.466s-7.951 11.608-.27 16.214 20.117 4.818 28.091.558c8.767-4.683 7.944-11.7.263-16.306z" class="cls-3" data-name="Path 3993" transform="translate(-517.328 -440.077)"/>
    <path id="Path_3994" d="M684.544 533.334l-2.278 7.826 18.454-4.176" class="cls-3" data-name="Path 3994" transform="translate(-526.311 -444.833)"/>
    <path id="Path_4290" d="M537.478 678.815L513.029 664.7l-38.345 22.139 24.2 14.061z" class="cls-3" data-name="Path 4290" transform="translate(-399.484 -618.786)"/>
    <path id="Path_4291" d="M483.693 663.369l-24.449-14.115 36.109-20.848 24.447 14.115z" class="cls-3" data-name="Path 4291" transform="translate(-386.696 -588.729)"/>
    <path id="Path_4292" d="M459.244 723.286v-6l24.449 14.115 36.107-20.842v6L483.693 737.4z" class="cls-3" data-name="Path 4292" transform="translate(-386.696 -656.766)"/>
    <path id="Path_4293" d="M459.244 755.736v-6l24.449 14.115v6z" class="cls-3" data-name="Path 4293" transform="translate(-386.696 -689.217)"/>
    <path id="Path_4294" d="M575.8 826.819l3.986 2.369a.818.818 0 00.838 0l6.807-4.075-6.875 3.515a.818.818 0 01-.709.017z" class="cls-3" data-name="Path 4294" transform="translate(-483.228 -751.637)"/>
    <path id="Path_4301" d="M656.451 693.99l-14.98-8.649-1.236.713 14.98 8.649z" class="cls-3" data-name="Path 4301" transform="translate(-532.358 -641.171)"/>
    <path id="Path_4301-2" d="M656.451 693.99l-14.98-8.649-1.236.713 14.98 8.649z" class="cls-3" data-name="Path 4301" transform="translate(-544.523 -633.766)"/>
    <path id="Path_4302" d="M632.95 708.489l-14.98-8.649-1.236.714 14.98 8.649z" class="cls-3" data-name="Path 4302" transform="translate(-512.895 -653.178)"/>
    <path id="Path_4302-2" d="M632.95 708.489l-14.98-8.649-1.236.714 14.98 8.649z" class="cls-3" data-name="Path 4302" transform="translate(-525.06 -645.774)"/>
    <path id="Path_4303" d="M608.056 722.331l-14.98-8.649-1.236.714 14.98 8.649z" class="cls-3" data-name="Path 4303" transform="translate(-492.278 -664.642)"/>
    <path id="Path_4303-2" d="M608.056 722.331l-14.98-8.649-1.236.714 14.98 8.649z" class="cls-3" data-name="Path 4303" transform="translate(-504.443 -657.237)"/>
    <path id="Path_4303-3" d="M608.056 722.331l-14.98-8.649-1.236.714 14.98 8.649z" class="cls-3" data-name="Path 4303" transform="translate(-509.203 -654.593)"/>
    <path id="Path_3809" d="M1513.734 633.581l-35.8-20.672c-1.968-1.134-2.951-2.623-2.951-4.113s.983-2.978 2.951-4.114l35.8-20.67a15.739 15.739 0 0114.249 0l35.8 20.67c1.968 1.136 2.951 2.625 2.951 4.114s-.982 2.979-2.951 4.113l-35.8 20.672a15.755 15.755 0 01-14.249 0z" class="cls-4" data-name="Path 3809" transform="translate(-1362.012 -582.308)"/>
    <path id="Path_3810" d="M1563.785 627.872l-35.8 20.672a15.755 15.755 0 01-14.249 0l-35.8-20.672c-1.968-1.134-2.951-2.623-2.951-4.113v45.376c0 1.491.983 2.98 2.951 4.115l35.8 20.671a15.755 15.755 0 0014.249 0l35.8-20.671c1.968-1.135 2.951-2.624 2.951-4.113v-45.378c-.001 1.49-.983 2.978-2.951 4.113z" class="cls-5" data-name="Path 3810" transform="translate(-1362.012 -597.27)"/>
    <path id="Path_3646-2" d="M1966.531 961.643L1930.775 941c-1.964-1.136-2.946-2.624-2.946-4.11s.983-2.973 2.946-4.108l35.756-20.646a15.749 15.749 0 0114.233 0l35.756 20.646c1.965 1.134 2.948 2.62 2.948 4.107s-.983 2.975-2.948 4.11l-35.756 20.641a15.71 15.71 0 01-14.233 0z" class="cls-4" data-name="Path 3646" transform="translate(-1873.031 -832.312)"/>
    <path id="Path_3647-2" d="M2007.443 961.184L2042.4 941c1.965-1.136 2.948-2.624 2.948-4.11s-.983-2.973-2.948-4.107l-35.756-20.646a12.213 12.213 0 00-3.122-1.218l-3.994-.482v50.745z" class="cls-6" data-name="Path 3647" transform="translate(-1898.912 -832.312)"/>
    <path id="Path_3648-2" d="M2005.535 928.8l-23.235-13.412a14.445 14.445 0 00-13.066 0l-23.24 13.412h-12.3v9.312c0 1.365.905 2.731 2.709 3.772l32.831 18.957a14.439 14.439 0 0013.066 0l32.834-18.957c1.8-1.04 2.706-2.407 2.706-3.772V928.8z" class="cls-7" data-name="Path 3648" transform="translate(-1875.147 -833.534)"/>
    <path id="Path_3649-2" d="M2016.52 955.944l-35.756 20.641a15.711 15.711 0 01-14.233 0l-35.756-20.641c-1.964-1.136-2.946-2.624-2.946-4.11v8.957c0 1.488.983 2.974 2.946 4.109l35.756 20.644a15.733 15.733 0 0014.233 0l35.756-20.644c1.965-1.133 2.948-2.621 2.948-4.109v-8.957c.001 1.486-.983 2.975-2.948 4.11z" class="cls-5" data-name="Path 3649" transform="translate(-1873.031 -847.254)"/>
    <path id="Path_3650-2" d="M1966.531 926.334l-35.756-20.64c-1.964-1.136-2.946-2.624-2.946-4.11s.983-2.974 2.946-4.108l35.756-20.645a15.741 15.741 0 0114.233 0l35.756 20.646c1.965 1.133 2.948 2.619 2.948 4.107s-.983 2.975-2.948 4.11l-35.756 20.64a15.706 15.706 0 01-14.233 0z" class="cls-4" data-name="Path 3650" transform="translate(-1873.031 -819.567)"/>
    <path id="Path_3651-2" d="M2007.443 925.876l34.958-20.182c1.965-1.136 2.948-2.624 2.948-4.11s-.983-2.974-2.948-4.107l-35.756-20.646a12.2 12.2 0 00-3.122-1.218l-3.994-.482v50.746z" class="cls-6" data-name="Path 3651" transform="translate(-1898.912 -819.567)"/>
    <path id="Path_3652-2" d="M2005.535 893.5l-23.235-13.42a14.444 14.444 0 00-13.066 0l-23.24 13.42h-12.3v9.311c0 1.365.905 2.73 2.709 3.772l32.831 18.957a14.435 14.435 0 0013.066 0l32.834-18.957c1.8-1.04 2.706-2.407 2.706-3.772V893.5z" class="cls-7" data-name="Path 3652" transform="translate(-1875.147 -820.79)"/>
    <path id="Path_3653-2" d="M2016.52 920.636l-35.756 20.64a15.705 15.705 0 01-14.233 0l-35.756-20.64c-1.964-1.135-2.946-2.624-2.946-4.11v8.957c0 1.487.983 2.973 2.946 4.109l35.756 20.643a15.727 15.727 0 0014.233 0l35.756-20.643c1.965-1.133 2.948-2.622 2.948-4.109v-8.957c.001 1.486-.983 2.974-2.948 4.11z" class="cls-5" data-name="Path 3653" transform="translate(-1873.031 -834.509)"/>
    <path id="Path_3654-2" d="M1966.531 891.028l-35.756-20.644c-1.964-1.134-2.946-2.622-2.946-4.107s.983-2.974 2.946-4.11l35.756-20.644a15.748 15.748 0 0114.233 0l35.756 20.644c1.965 1.137 2.948 2.623 2.948 4.11s-.983 2.973-2.948 4.107l-35.756 20.644a15.726 15.726 0 01-14.233 0z" class="cls-4" data-name="Path 3654" transform="translate(-1873.031 -806.822)"/>
    <path id="Path_3655-2" d="M2016.52 885.326l-35.756 20.644a15.728 15.728 0 01-14.233 0l-35.756-20.644c-1.964-1.134-2.946-2.622-2.946-4.107v8.957c0 1.488.983 2.973 2.946 4.107l35.756 20.644a15.727 15.727 0 0014.233 0l35.756-20.644c1.965-1.134 2.948-2.619 2.948-4.107v-8.957c.001 1.481-.983 2.973-2.948 4.107z" class="cls-5" data-name="Path 3655" transform="translate(-1873.031 -821.765)"/>
    <path id="Path_3774" d="M1548.009 905.705l-2.063 1.192c-1.8-1.04-43.988-1.037-45.789 0l-2.064-1.194-17.036 5.888v9.294c0 1.362.9 2.725 2.7 3.765l14.332 8.279v24.4l4.1 2.371v-24.4l14.333 8.276a14.4 14.4 0 0013.041 0l14.334-8.276v24.4l4.1-2.368v-24.4l14.335-8.279c1.8-1.037 2.7-2.4 2.7-3.765v-9.294z" class="cls-7" data-name="Path 3774" transform="translate(-1303.332 -827.658)"/>
    <path id="Path_3775" d="M1554.694 952.013l-14.334 8.276a14.4 14.4 0 01-13.041 0l-14.333-8.276-2.041 1.178 15.791 9.117a15.689 15.689 0 0014.205 0l15.791-9.117z" class="cls-4" data-name="Path 3775" transform="translate(-1314.121 -844.373)"/>
    <path id="Path_3776" d="M1540.942 962.973a15.688 15.688 0 01-14.205 0l-15.791-9.117v24.406l15.791 9.117a15.7 15.7 0 0014.205 0l15.791-9.117v-24.406z" class="cls-5" data-name="Path 3776" transform="translate(-1314.121 -845.038)"/>
    <path id="Path_3777" d="M1569.664 953.191l-2.039-1.178-14.334 8.276a13.329 13.329 0 01-6.521 1.561h7.9z" class="cls-8" data-name="Path 3777" transform="translate(-1327.052 -844.373)"/>
    <path id="Path_3778-2" d="M1478.945 926.886v-4.562l-.8.461c-1.962 1.134-2.941 2.615-2.941 4.1s.98 2.969 2.941 4.1l15.793 9.118 2.041-1.182-14.332-8.275c-1.799-1.035-2.702-2.398-2.702-3.76z" class="cls-4" data-name="Path 3778" transform="translate(-1301.22 -833.657)"/>
    <path id="Path_3779-2" d="M1475.206 929.463v24.406c0 1.484.98 2.967 2.941 4.1l15.793 9.116v-24.4l-15.793-9.119c-1.961-1.134-2.941-2.619-2.941-4.103z" class="cls-9" data-name="Path 3779" transform="translate(-1301.22 -836.234)"/>
    <path id="Path_3780-2" d="M1506.563 972.709l-2.041 1.178v-24.4l2.041-1.181z" class="cls-10" data-name="Path 3780" transform="translate(-1311.802 -843.034)"/>
    <path id="Path_3781" d="M1600.158 930.651l-14.335 8.275 2.042 1.182 15.795-9.118c1.961-1.134 2.94-2.619 2.94-4.1s-.98-2.966-2.94-4.1l-.8-.461v4.562c.001 1.357-.902 2.72-2.702 3.76z" class="cls-8" data-name="Path 3781" transform="translate(-1341.149 -833.657)"/>
    <path id="Path_3782" d="M1604.812 933.566l-15.795 9.119v24.4l15.795-9.116c1.961-1.134 2.94-2.618 2.94-4.1v-24.406c.001 1.484-.979 2.969-2.94 4.103z" class="cls-10" data-name="Path 3782" transform="translate(-1342.302 -836.234)"/>
    <path id="Path_3783" d="M1585.823 972.709l2.042 1.178v-24.4l-2.042-1.181z" class="cls-9" data-name="Path 3783" transform="translate(-1341.149 -843.034)"/>
    <path id="Path_3784-2" d="M1558.8 865.216l-4.751-2.744-22.9 13.22-22.894-13.22-4.752 2.744 22.895 13.219L1506.2 890.1l4.752 2.745 20.2-11.666 20.207 11.666 4.753-2.745-20.2-11.666z" class="cls-7" data-name="Path 3784" transform="translate(-1311.436 -812.053)"/>
    <path id="Path_3785-2" d="M1556.733 900.106l-22.894-13.22-22.893 13.22 15.791 9.117a15.7 15.7 0 0014.205 0l15.814-9.132z" class="cls-4" data-name="Path 3785" transform="translate(-1314.121 -820.865)"/>
    <path id="Path_3786-2" d="M1556.733 907.573l-15.791 9.117a15.705 15.705 0 01-14.205 0l-15.791-9.117v24.4l15.791 9.117a15.689 15.689 0 0014.205 0l15.791-9.117z" class="cls-5" data-name="Path 3786" transform="translate(-1314.121 -828.332)"/>
    <path id="Path_3787-2" d="M1516.832 875.709l-22.895-13.217-15.79 9.117c-1.962 1.134-2.941 2.618-2.941 4.1s.98 2.968 2.941 4.1l15.79 9.118z" class="cls-4" data-name="Path 3787" transform="translate(-1301.22 -812.06)"/>
    <path id="Path_3788-2" d="M1493.94 896.4l-15.793-9.119c-1.962-1.131-2.941-2.616-2.941-4.1v24.4c0 1.484.98 2.969 2.941 4.1l15.793 9.118z" class="cls-9" data-name="Path 3788" transform="translate(-1301.22 -819.527)"/>
    <path id="Path_3789-2" d="M1506.563 895.216l-2.041 1.179V920.8l2.041-1.179v-22.048l20.851-12.037v-2.36z" class="cls-10" data-name="Path 3789" transform="translate(-1311.802 -819.525)"/>
    <path id="Path_3790" d="M1591.881 871.609l-15.792-9.117-22.9 13.217 22.9 13.22 15.792-9.118c1.961-1.131 2.941-2.616 2.941-4.1s-.98-2.968-2.941-4.102z" class="cls-4" data-name="Path 3790" transform="translate(-1329.371 -812.06)"/>
    <path id="Path_3791" d="M1589.021 896.4l15.794-9.119c1.96-1.131 2.94-2.616 2.94-4.1v24.4c0 1.484-.98 2.969-2.94 4.1l-15.794 9.118z" class="cls-10" data-name="Path 3791" transform="translate(-1342.303 -819.527)"/>
    <path id="Path_3792" d="M1574.048 895.216l-20.853-12.041v2.36l20.853 12.037v22.048l2.042 1.179v-24.404z" class="cls-9" data-name="Path 3792" transform="translate(-1329.371 -819.525)"/>
    <path id="Path_3793-2" d="M1533.839 865.892l22.9-13.217-15.793-9.117a15.7 15.7 0 00-14.205 0l-15.791 9.117z" class="cls-4" data-name="Path 3793" transform="translate(-1314.121 -804.612)"/>
    <path id="Path_3794-2" d="M1546.769 874.358V872l22.9-13.216v2.357z" class="cls-10" data-name="Path 3794" transform="translate(-1327.052 -810.721)"/>
    <path id="Path_3795-2" d="M1533.838 874.358V872l-22.893-13.216v2.357z" class="cls-9" data-name="Path 3795" transform="translate(-1314.121 -810.721)"/>
    <path id="Path_3797-2" d="M1740.39 489.328l-35.69-20.605c-1.961-1.133-2.942-2.616-2.942-4.1s.98-2.968 2.942-4.1l35.69-20.605a15.7 15.7 0 0114.2 0l35.69 20.605c1.962 1.132 2.941 2.616 2.941 4.1s-.979 2.968-2.941 4.1l-35.69 20.605a15.7 15.7 0 01-14.2 0z" class="cls-4" data-name="Path 3797" transform="translate(-1585.25 -369.281)"/>
    <path id="Path_3798-2" d="M1790.284 483.636l-35.69 20.605a15.692 15.692 0 01-14.2 0l-35.69-20.6c-1.961-1.133-2.942-2.616-2.942-4.1v53.983c0 1.485.98 2.969 2.942 4.1l35.69 20.605a15.7 15.7 0 0014.2 0l35.69-20.605c1.962-1.132 2.941-2.616 2.941-4.1v-53.989c.001 1.485-.979 2.965-2.941 4.101z" class="cls-5" data-name="Path 3798" transform="translate(-1585.25 -384.195)"/>
    <path id="Path_3799-2" d="M1768.344 471.569l8.818 5.091-8.818 5.092-8.818-5.092z" class="cls-8" data-name="Path 3799" transform="translate(-1606.101 -381.319)"/>
    <path id="Path_3800-2" d="M1790.65 484.448l8.818 5.091-8.818 5.092-8.818-5.092z" class="cls-8" data-name="Path 3800" transform="translate(-1614.153 -385.968)"/>
    <path id="Path_3801-2" d="M1812.957 471.569l8.819 5.091-8.819 5.092-8.818-5.092z" class="cls-8" data-name="Path 3801" transform="translate(-1622.204 -381.319)"/>
    <path id="Path_3802-2" d="M1768.344 497.326l8.818 5.091-8.818 5.093-8.818-5.093z" class="cls-8" data-name="Path 3802" transform="translate(-1606.101 -390.617)"/>
    <path id="Path_3803-2" d="M1746.037 458.689l8.818 5.092-8.818 5.092-8.818-5.092z" class="cls-8" data-name="Path 3803" transform="translate(-1598.049 -376.67)"/>
    <path id="Path_3804-2" d="M1790.65 458.689l8.818 5.092-8.818 5.092-8.818-5.092z" class="cls-8" data-name="Path 3804" transform="translate(-1614.153 -376.67)"/>
    <path id="Path_3805-2" d="M1768.344 445.811l8.818 5.09-8.818 5.092-8.818-5.092z" class="cls-8" data-name="Path 3805" transform="translate(-1606.101 -372.022)"/>
    <path id="Path_3806-2" d="M1723.73 471.569l8.818 5.091-8.818 5.092-8.818-5.092z" class="cls-8" data-name="Path 3806" transform="translate(-1589.997 -381.319)"/>
    <path id="Path_3807-2" d="M1746.037 484.448l8.818 5.091-8.818 5.092-8.818-5.092z" class="cls-8" data-name="Path 3807" transform="translate(-1598.049 -385.968)"/>
    <ellipse id="Ellipse_32-2" cx="22.398" cy="12.671" fill="#e0e6ff" data-name="Ellipse 32" rx="22.398" ry="12.671" transform="translate(143.605 10.728)" style="mix-blend-mode:multiply;isolation:isolate"/>
    <path id="Path_3903-2" d="M544.746 1117.732a16.61 16.61 0 01-.484 5.2c-.709 2.837-3.18 5.53-7.353 7.514-9.157 4.353-23.013 3.649-30.948-1.573-3.7-2.434-5.707-4.908-5.753-8-.12-1.671-.16-4.272-.16-4.272.292-1.019 1.463-2.02 2.211-2.971a14.923 14.923 0 016.212-4.979c9.157-4.353 23.013-3.649 30.948 1.573 3.342 2.202 5.095 4.852 5.327 7.508z" class="cls-12" data-name="Path 3903" transform="translate(-364.579 -1096.15)"/>
    <ellipse id="Ellipse_33-2" cx="22.398" cy="12.671" class="cls-13" data-name="Ellipse 33" rx="22.398" ry="12.671" transform="translate(135.46 8.806)"/>
    <ellipse id="Ellipse_34-2" cx="22.398" cy="12.671" fill="#ffc248" data-name="Ellipse 34" rx="22.398" ry="12.671" transform="translate(135.46 8.115)"/>
    <ellipse id="Ellipse_35-2" cx="15.658" cy="8.858" class="cls-12" data-name="Ellipse 35" rx="15.658" ry="8.858" transform="translate(142.184 11.595)"/>
    <path id="Path_3904-2" d="M518.926 1112.748c6.661-3.121 16.532-2.6 22.046 1.171 2.2 1.5 3.371 3.292 3.566 5.1.234-2.166-.928-4.384-3.566-6.186-5.515-3.767-15.385-4.292-22.046-1.17-4.006 1.877-5.938 4.644-5.644 7.372.254-2.361 2.169-4.659 5.644-6.287z" class="cls-15" data-name="Path 3904" transform="translate(-371.068 -1098.031)"/>
    <path id="Path_3905-2" d="M545.021 1118.992l-3.392.913-4.016-.613-2.312.613-1.7.278-.024 1.952a1.884 1.884 0 000 .264 11.6 11.6 0 001.025 2.746l-1.426.283-2.382-.6.647.82 3.262-.014a.8.8 0 01-.508.805 2.423 2.423 0 01-2.06.089l-.695-.88h-.64a3.32 3.32 0 01-.877-1.807l-1.264.075-1.826-1.666v1.775a3.219 3.219 0 00.674 1.751l-.919.3v1.774l1.757 1.17 2.028-1a7.71 7.71 0 006.569.028c1.015-.5 1.386-1.1 1.427-1.718v-.007a1.846 1.846 0 000-.229v-1.539l-.483.055c-.529-1.057-1.186-1.991-.3-2.428a2.426 2.426 0 012.588.275 1.956 1.956 0 011 1.8l2.978.082a3.1 3.1 0 000-.692v-1.083l-.466-1.128 1.336-.661z" class="cls-15" data-name="Path 3905" transform="translate(-377.622 -1102.634)"/>
    <path id="Path_3906-2" d="M528.541 1124.642a4.283 4.283 0 01-1.7-2.856l3.09-.184a3.227 3.227 0 001.459 2.285 2.625 2.625 0 002.813.311c2.008-.994-2.812-4.16.7-5.9a7.466 7.466 0 016.36.048l2.009-.994 1.757 1.17-1.969.975a2.814 2.814 0 011.1 2.589l-2.978-.082a1.956 1.956 0 00-1-1.8 2.426 2.426 0 00-2.588-.275c-1.853.917 3.084 4.024-.64 5.868a7.713 7.713 0 01-6.569-.029l-2.028 1-1.757-1.17z" class="cls-13" data-name="Path 3906" transform="translate(-377.622 -1101.829)"/>
    <path id="Path_3907-2" fill="#fc6" d="M528.541 1123.977a4.281 4.281 0 01-1.7-2.856l3.09-.183a3.224 3.224 0 001.459 2.284 2.624 2.624 0 002.813.311c2.008-.994-2.812-4.159.7-5.9a7.469 7.469 0 016.36.048l2.009-.994 1.757 1.17-1.969.974a2.813 2.813 0 011.1 2.589l-2.978-.082a1.956 1.956 0 00-1-1.8 2.426 2.426 0 00-2.588-.275c-1.853.916 3.084 4.024-.64 5.868a7.708 7.708 0 01-6.569-.029l-2.028 1-1.757-1.17z" data-name="Path 3907" transform="translate(-377.622 -1101.503)"/>
    <path id="Path_3991-2" fill="#4a70d6" d="M705.113 535.239c-8.088-4.85-21.327-5.07-29.572-.491s-8.371 12.223-.284 17.073 21.182 5.073 29.579.588c9.231-4.931 8.364-12.32.277-17.17z" data-name="Path 3991" opacity=".27" transform="translate(-523.261 -447.531)"/>
    <path id="Path_3992-2" fill="#51b55a" d="M695.014 533.553c-7.68-4.606-20.254-4.815-28.084-.466s-7.951 11.608-.27 16.214 20.117 4.819 28.091.559c8.767-4.683 7.943-11.7.263-16.307z" data-name="Path 3992" transform="translate(-519.834 -446.913)"/>
    <path id="Path_3993-2" fill="#75c97c" d="M694.556 525.417c-7.68-4.606-20.254-4.815-28.084-.466s-7.951 11.608-.27 16.214 20.117 4.818 28.091.558c8.767-4.683 7.944-11.7.263-16.306z" data-name="Path 3993" transform="translate(-519.645 -443.552)"/>
    <path id="Path_3994-2" fill="none" stroke="#fff" stroke-linecap="round" stroke-linejoin="round" stroke-width="3" d="M155.917 85.026l-2.278 7.826 18.454-4.176" data-name="Path 3994"/>
    <path id="Path_4290-2" fill="#a8c4e5" d="M537.478 678.815L513.029 664.7l-38.345 22.139 24.2 14.061z" data-name="Path 4290" transform="translate(-401.8 -622.261)" style="mix-blend-mode:multiply;isolation:isolate" opacity=".4"/>
    <path id="Path_4291-2" fill="#ebf7ff" d="M483.693 663.369l-24.449-14.115 36.109-20.848 24.447 14.115z" data-name="Path 4291" transform="translate(-389.013 -592.203)"/>
    <path id="Path_4292-2" d="M459.244 723.286v-6l24.449 14.115 36.107-20.842v6L483.693 737.4z" class="cls-10" data-name="Path 4292" transform="translate(-389.013 -660.241)"/>
    <path id="Path_4293-2" d="M459.244 755.736v-6l24.449 14.115v6z" class="cls-9" data-name="Path 4293" transform="translate(-389.013 -692.692)"/>
    <path id="Path_4294-2" d="M575.8 826.819l3.986 2.369a.818.818 0 00.838 0l6.807-4.075-6.875 3.515a.818.818 0 01-.709.017z" class="cls-23" data-name="Path 4294" transform="translate(-485.545 -755.112)"/>
    <path id="Path_4301-3" d="M656.451 693.99l-14.98-8.649-1.236.713 14.98 8.649z" class="cls-23" data-name="Path 4301" transform="translate(-534.675 -644.646)"/>
    <path id="Path_4301-4" d="M656.451 693.99l-14.98-8.649-1.236.713 14.98 8.649z" class="cls-23" data-name="Path 4301" transform="translate(-546.84 -637.241)"/>
    <path id="Path_4302-3" d="M632.95 708.489l-14.98-8.649-1.236.714 14.98 8.649z" class="cls-23" data-name="Path 4302" transform="translate(-515.212 -656.653)"/>
    <path id="Path_4302-4" d="M632.95 708.489l-14.98-8.649-1.236.714 14.98 8.649z" class="cls-23" data-name="Path 4302" transform="translate(-527.377 -649.248)"/>
    <path id="Path_4303-4" d="M608.056 722.331l-14.98-8.649-1.236.714 14.98 8.649z" class="cls-23" data-name="Path 4303" transform="translate(-494.595 -668.117)"/>
    <path id="Path_4303-5" d="M608.056 722.331l-14.98-8.649-1.236.714 14.98 8.649z" class="cls-23" data-name="Path 4303" transform="translate(-506.76 -660.712)"/>
    <path id="Path_4303-6" d="M608.056 722.331l-14.98-8.649-1.236.714 14.98 8.649z" class="cls-23" data-name="Path 4303" transform="translate(-511.52 -658.067)"/>
  </g>
</svg>