<svg xmlns="http://www.w3.org/2000/svg" width="59.601" height="47.681">
  <defs/>
  <path fill="#0176f4" d="M50.661 20.861a7.45 7.45 0 107.45 7.45 7.448 7.448 0 00-7.45-7.45zm0 11.92a4.47 4.47 0 114.47-4.47 4.471 4.471 0 01-4.47 4.47zm-28.311-4.47a7.45 7.45 0 107.45-7.45 7.448 7.448 0 00-7.449 7.45zm11.92 0a4.47 4.47 0 11-4.47-4.47 4.471 4.471 0 014.471 4.47zm-25.33 7.45a7.45 7.45 0 10-7.45-7.45 7.448 7.448 0 007.45 7.45zm0-11.92a4.47 4.47 0 11-4.47 4.47 4.471 4.471 0 014.47-4.47zm43.584 14.9H48.8a7.28 7.28 0 00-7.078 7.45 1.49 1.49 0 002.98 0 4.3 4.3 0 014.1-4.47h3.725a4.3 4.3 0 014.1 4.47 1.49 1.49 0 102.98 0 7.28 7.28 0 00-7.083-7.45zm-41.721 0H7.078A7.28 7.28 0 000 46.191a1.49 1.49 0 002.98 0 4.3 4.3 0 014.1-4.47h3.72a4.3 4.3 0 014.1 4.47 1.49 1.49 0 102.98 0 7.28 7.28 0 00-7.08-7.45zm20.861 0h-3.726a7.28 7.28 0 00-7.078 7.45 1.49 1.49 0 102.98 0 4.3 4.3 0 014.1-4.47h3.725a4.3 4.3 0 014.1 4.47 1.49 1.49 0 102.98 0 7.28 7.28 0 00-7.082-7.45zM5.96 4.47a1.492 1.492 0 011.49-1.49h44.7a1.492 1.492 0 011.49 1.49v13.9a10.356 10.356 0 012.98 1.407V4.47A4.475 4.475 0 0052.151 0H7.45a4.475 4.475 0 00-4.47 4.47v15.3a10.381 10.381 0 012.98-1.407z"/>
</svg>