<svg xmlns="http://www.w3.org/2000/svg" width="36.999" height="49.333">
  <defs/>
  <path fill="#0176f4" d="M21.11 31.548l-4.336-1.3a1.259 1.259 0 01-.845-1.227 1.212 1.212 0 011.137-1.271h2.708a2.309 2.309 0 011.235.358.791.791 0 00.976-.07l1.132-1.08a.772.772 0 00-.055-1.17 5.517 5.517 0 00-3.023-1.094v-2.34a.771.771 0 00-.771-.771h-1.54a.771.771 0 00-.771.771v2.324a4.291 4.291 0 00-4.111 4.343 4.359 4.359 0 003.043 4.179l4.336 1.3a1.259 1.259 0 01.845 1.227A1.212 1.212 0 0119.932 37h-2.708a2.309 2.309 0 01-1.235-.358.791.791 0 00-.976.07l-1.132 1.08a.772.772 0 00.055 1.17 5.517 5.517 0 003.023 1.094V42.4a.771.771 0 00.771.771h1.542a.771.771 0 00.771-.771v-2.329a4.29 4.29 0 004.111-4.343 4.359 4.359 0 00-3.043-4.181zM6.937 9.25h10.792a.771.771 0 00.771-.771V6.937a.771.771 0 00-.771-.771H6.937a.771.771 0 00-.771.771v1.542a.771.771 0 00.771.771zm11.562 5.4V13.1a.771.771 0 00-.771-.771H6.937a.771.771 0 00-.771.771v1.542a.771.771 0 00.771.771h10.792a.771.771 0 00.771-.767zm17.141-5.2l-8.081-8.091A4.625 4.625 0 0024.293 0H4.624A4.64 4.64 0 000 4.634v40.075a4.626 4.626 0 004.624 4.624h27.751A4.626 4.626 0 0037 44.709V12.716a4.647 4.647 0 00-1.359-3.275zM24.669 3.14a1.516 1.516 0 01.713.4l8.082 8.082a1.516 1.516 0 01.4.713h-9.2zm9.248 41.568a1.546 1.546 0 01-1.542 1.542H4.624a1.546 1.546 0 01-1.542-1.542V4.634a1.554 1.554 0 011.542-1.55h16.962v10.027a2.3 2.3 0 002.314 2.305h10.017z"/>
</svg>