<svg xmlns="http://www.w3.org/2000/svg" width="55.55" height="44.44">
  <defs/>
  <path fill="#0176f4" d="M13.193 0H.694A.7.7 0 000 .694v13.193a.7.7 0 00.694.694h1.389a.7.7 0 00.694-.694V2.777h10.416a.7.7 0 00.694-.694V.694A.7.7 0 0013.193 0zm0 41.662H2.778v-11.11a.7.7 0 00-.694-.694H.694a.7.7 0 00-.694.694v13.194a.7.7 0 00.694.694h12.5a.7.7 0 00.694-.694v-1.389a.7.7 0 00-.695-.695zM54.856 0h-12.5a.7.7 0 00-.694.694v1.389a.7.7 0 00.694.694h10.417v11.11a.7.7 0 00.694.694h1.389a.7.7 0 00.694-.694V.694A.7.7 0 0054.856 0zm0 29.858h-1.389a.7.7 0 00-.694.694v11.11H42.357a.7.7 0 00-.694.694v1.389a.7.7 0 00.694.694h12.5a.7.7 0 00.694-.694V30.552a.7.7 0 00-.695-.694zM13.193 8.332H9.027a.7.7 0 00-.694.694v26.387a.7.7 0 00.694.694h4.166a.7.7 0 00.694-.694V9.027a.7.7 0 00-.694-.695zm29.164 27.775h4.166a.7.7 0 00.694-.694V9.027a.7.7 0 00-.694-.694h-4.166a.7.7 0 00-.694.694v26.386a.7.7 0 00.694.694zM35.413 8.332h-4.166a.7.7 0 00-.694.694v26.387a.7.7 0 00.694.694h4.166a.7.7 0 00.694-.694V9.027a.7.7 0 00-.694-.695zm-16.665 0h-1.389a.7.7 0 00-.694.694v26.387a.7.7 0 00.694.694h1.389a.7.7 0 00.694-.694V9.027a.7.7 0 00-.694-.695zm5.555 0h-1.389a.7.7 0 00-.694.694v26.387a.7.7 0 00.694.694H24.3a.7.7 0 00.7-.694V9.027a.7.7 0 00-.7-.695z"/>
</svg>