<svg xmlns="http://www.w3.org/2000/svg" width="43.022" height="43.021">
  <defs/>
  <path fill="#0176f4" d="M41.559 13.824c-.166-.137-1.865-1.5-3.915-3.154v-2.6a2.689 2.689 0 00-2.689-2.689h-3.9l-.857-.684C28.336 3.209 25.161 0 21.511 0c-3.631 0-6.776 3.169-8.683 4.694l-.857.684h-3.9a2.689 2.689 0 00-2.693 2.689v2.6c-2.06 1.656-3.76 3.026-3.906 3.145A4.033 4.033 0 000 16.93v22.058a4.033 4.033 0 004.033 4.033h34.955a4.033 4.033 0 004.033-4.033V16.932a4.031 4.031 0 00-1.462-3.108zM21.511 2.689c1.829 0 3.751 1.4 5.305 2.689H16.209c1.557-1.283 3.48-2.689 5.302-2.689zM8.067 8.067h26.888v14.566a1675.432 1675.432 0 01-7.276 5.826c-1.416 1.128-4.217 3.838-6.168 3.807-1.95.032-4.753-2.679-6.168-3.808-1.789-1.42-4.558-3.641-7.276-5.826zM2.689 16.93a1.341 1.341 0 01.491-1.039c.1-.086.976-.788 2.2-1.771v6.348L2.689 18.3zm37.644 22.058a1.346 1.346 0 01-1.344 1.344H4.033a1.346 1.346 0 01-1.344-1.344V21.755c3.592 2.894 8.345 6.715 10.981 8.808 1.722 1.375 4.768 4.414 7.841 4.391 3.063.022 6.073-2.98 7.841-4.391 2.639-2.095 7.388-5.915 10.981-8.809zm0-20.687l-2.689 2.167v-6.346c1.213.976 2.084 1.678 2.2 1.775a1.339 1.339 0 01.487 1.036zm-21.1 1.913l3.781 1.134a1.1 1.1 0 01.737 1.07 1.057 1.057 0 01-.992 1.108H20.4a2.013 2.013 0 01-1.077-.313.69.69 0 00-.851.061l-.987.942a.673.673 0 00.048 1.02 4.811 4.811 0 002.636.954v1.369a.672.672 0 00.672.672h1.344a.672.672 0 00.672-.672v-1.353a3.741 3.741 0 003.585-3.787 3.8 3.8 0 00-2.654-3.646l-3.781-1.134a1.1 1.1 0 01-.737-1.07 1.057 1.057 0 01.992-1.108h2.362a2.013 2.013 0 011.077.313.69.69 0 00.851-.061l.987-.942a.673.673 0 00-.048-1.02 4.811 4.811 0 00-2.636-.954v-1.369a.672.672 0 00-.672-.672h-1.344a.672.672 0 00-.672.672v1.355a3.742 3.742 0 00-3.585 3.787 3.8 3.8 0 002.653 3.645z"/>
</svg>