<svg xmlns="http://www.w3.org/2000/svg" width="48.212" height="55.1">
  <defs/>
  <path fill="#0176f4" d="M20.662 11.515v4.3a1.291 1.291 0 01-1.291 1.291h-4.3a1.291 1.291 0 01-1.291-1.291v-4.3a1.291 1.291 0 011.291-1.291h4.3a1.291 1.291 0 011.291 1.291zm12.484-1.291h-4.3a1.291 1.291 0 00-1.291 1.291v4.3a1.291 1.291 0 001.291 1.291h4.3a1.291 1.291 0 001.291-1.291v-4.3a1.291 1.291 0 00-1.291-1.291zM19.371 20.555h-4.3a1.291 1.291 0 00-1.291 1.291v4.3a1.291 1.291 0 001.291 1.291h4.3a1.291 1.291 0 001.291-1.291v-4.3a1.291 1.291 0 00-1.291-1.291zm13.775 0h-4.3a1.291 1.291 0 00-1.291 1.291v4.3a1.291 1.291 0 001.291 1.291h4.3a1.291 1.291 0 001.291-1.291v-4.3a1.291 1.291 0 00-1.291-1.291zM19.371 30.886h-4.3a1.291 1.291 0 00-1.291 1.291v4.3a1.291 1.291 0 001.291 1.291h4.3a1.291 1.291 0 001.291-1.291v-4.3a1.291 1.291 0 00-1.291-1.291zm13.775 0h-4.3a1.291 1.291 0 00-1.291 1.291v4.3a1.291 1.291 0 001.291 1.291h4.3a1.291 1.291 0 001.291-1.291v-4.3a1.291 1.291 0 00-1.291-1.291zm15.066 22.061V55.1H0v-2.153a1.291 1.291 0 011.291-1.291h2.153V2.583A2.583 2.583 0 016.027 0h36.159a2.583 2.583 0 012.583 2.583v49.073h2.152a1.291 1.291 0 011.291 1.291zm-6.887-1.291V3.444H6.887v48.212h13.775v-9.148a1.291 1.291 0 011.291-1.291h4.3a1.291 1.291 0 011.291 1.291v9.147z"/>
</svg>