<svg xmlns="http://www.w3.org/2000/svg" width="52.571" height="52.569">
  <defs/>
  <path fill="#0176f4" stroke="transparent" stroke-miterlimit="10" d="M20.746 49.775l-9.8-9.8h1.524a7.529 7.529 0 005.357-2.218l7.763-7.763a1.47 1.47 0 012.033 0l7.735 7.735a7.529 7.529 0 005.357 2.218h.932l-9.825 9.824a7.835 7.835 0 01-11.08 0zM2.795 31.825a7.834 7.834 0 010-11.079l5.961-5.96a1.129 1.129 0 00.4.08h3.319a5.334 5.334 0 013.748 1.553l7.764 7.764a3.717 3.717 0 005.25 0l7.735-7.735a5.335 5.335 0 013.748-1.553h2.7a1.132 1.132 0 00.422-.085l5.937 5.937a7.834 7.834 0 010 11.079l-5.937 5.937a1.132 1.132 0 00-.422-.085h-2.7a5.335 5.335 0 01-3.748-1.553l-7.735-7.734a3.8 3.8 0 00-5.251 0l-7.763 7.763a5.335 5.335 0 01-3.748 1.553H9.156a1.13 1.13 0 00-.4.08zm22.8-9.251l-7.763-7.765a7.529 7.529 0 00-5.357-2.218h-1.524l9.8-9.8a7.835 7.835 0 0111.08 0l9.824 9.824h-.932a7.529 7.529 0 00-5.357 2.218l-7.735 7.735a1.438 1.438 0 01-2.033 0z" data-name="Union 26"/>
</svg>