<svg xmlns="http://www.w3.org/2000/svg" width="30.133" height="48.213">
  <defs/>
  <path fill="#0176f4" d="M18.457 42.186h-6.78a1.133 1.133 0 01-1.13-1.13V40.3a1.133 1.133 0 011.13-1.13h6.78a1.133 1.133 0 011.13 1.13v.753a1.133 1.133 0 01-1.13 1.133zM30.133 4.52v39.173a4.521 4.521 0 01-4.52 4.52H4.52A4.521 4.521 0 010 43.693V4.52A4.521 4.521 0 014.52 0h21.093a4.521 4.521 0 014.52 4.52zm-3.013 0a1.511 1.511 0 00-1.507-1.507H4.52A1.511 1.511 0 003.013 4.52v39.173A1.511 1.511 0 004.52 45.2h21.093a1.511 1.511 0 001.507-1.507z"/>
</svg>