<svg xmlns="http://www.w3.org/2000/svg" width="48.212" height="55.1">
  <defs/>
  <path fill="#0176f4" d="M33.749 30.994c-3.089 0-4.574 1.722-9.642 1.722s-6.543-1.722-9.642-1.722A14.467 14.467 0 000 45.457v4.477A5.167 5.167 0 005.166 55.1h37.881a5.167 5.167 0 005.166-5.166v-4.477a14.467 14.467 0 00-14.464-14.463zm11.02 18.941a1.727 1.727 0 01-1.722 1.722H5.166a1.727 1.727 0 01-1.722-1.722v-4.478a11.027 11.027 0 0111.02-11.02c2.109 0 4.208 1.722 9.642 1.722s7.533-1.722 9.642-1.722a11.027 11.027 0 0111.02 11.02zM24.106 27.55a13.775 13.775 0 10-13.775-13.775A13.774 13.774 0 0024.106 27.55zm0-24.106a10.331 10.331 0 11-10.331 10.331A10.348 10.348 0 0124.106 3.444z"/>
</svg>
