<svg xmlns="http://www.w3.org/2000/svg" width="70.032" height="50.335">
  <defs/>
  <path fill="#0176f4" d="M69.552 15.386L56.9 27.97a1.641 1.641 0 01-2.321 0l-.966-.97a1.641 1.641 0 010-2.321l8.335-8.268H1.641A1.641 1.641 0 010 14.773v-1.094a1.641 1.641 0 011.641-1.641h60.308L53.613 3.77a1.641 1.641 0 010-2.321l.967-.967a1.642 1.642 0 012.321 0l12.65 12.584a1.641 1.641 0 01.001 2.32zM.481 37.271l12.65 12.584a1.642 1.642 0 002.321 0l.967-.967a1.641 1.641 0 000-2.321L8.083 38.3h60.308a1.641 1.641 0 001.641-1.641v-1.094a1.641 1.641 0 00-1.641-1.641H8.085l8.335-8.268a1.641 1.641 0 000-2.321l-.967-.967a1.641 1.641 0 00-2.321 0L.481 34.95a1.641 1.641 0 000 2.321z"/>
</svg>