<svg xmlns="http://www.w3.org/2000/svg" width="49.975" height="49.976">
  <defs/>
  <path fill="#0176f4" d="M49.975 24.989a2.414 2.414 0 00-1.442-2.226L38.8 18.539l9.731-4.222a2.437 2.437 0 000-4.451L26.543.325a3.888 3.888 0 00-3.111 0L1.446 9.865a2.437 2.437 0 000 4.451l9.734 4.224-9.735 4.222a2.437 2.437 0 000 4.451l9.733 4.222-9.73 4.221a2.439 2.439 0 000 4.453l21.993 9.542a3.889 3.889 0 003.1 0l21.99-9.54a2.439 2.439 0 000-4.453L38.8 31.437l9.73-4.221a2.415 2.415 0 001.446-2.226zm-45.56-12.9L24.72 3.281a.676.676 0 01.532 0l20.305 8.81-20.302 8.815a.663.663 0 01-.535 0zM45.56 37.885l-20.305 8.81a.663.663 0 01-.535 0l-20.305-8.81 10.811-4.691 8.21 3.562a3.889 3.889 0 003.1 0l8.21-3.562 10.814 4.691zm-20.305-4.086a.663.663 0 01-.535 0L4.415 24.988l10.812-4.691 8.209 3.563a3.889 3.889 0 003.1 0l8.209-3.562L45.56 24.99l-20.305 8.809z"/>
</svg>